<svg width="274" height="297" viewBox="0 0 274 297" fill="none" xmlns="http://www.w3.org/2000/svg">
<path d="M192.164 30.976V18.784H191.732L190.148 24.544H187.124V24.256L189.14 17.2H195.332V30.976H199.508V34H187.412V30.976H192.164ZM206.859 30.976V18.784H206.427L204.843 24.544H201.819V24.256L203.835 17.2H210.027V30.976H214.203V34H202.107V30.976H206.859ZM220.547 25.6C220.547 25.056 220.747 24.584 221.147 24.184C221.547 23.784 222.019 23.584 222.563 23.584C223.107 23.584 223.579 23.784 223.979 24.184C224.379 24.584 224.579 25.056 224.579 25.6C224.579 26.144 224.379 26.616 223.979 27.016C223.579 27.416 223.107 27.616 222.563 27.616C222.019 27.616 221.547 27.416 221.147 27.016C220.747 26.616 220.547 26.144 220.547 25.6ZM216.371 23.728C216.371 21.552 216.915 19.864 218.003 18.664C219.107 17.464 220.627 16.864 222.563 16.864C224.499 16.864 226.011 17.464 227.099 18.664C228.203 19.864 228.755 21.552 228.755 23.728V27.472C228.755 29.712 228.203 31.416 227.099 32.584C226.011 33.752 224.499 34.336 222.563 34.336C220.627 34.336 219.107 33.752 218.003 32.584C216.915 31.416 216.371 29.712 216.371 27.472V23.728ZM222.563 31.456C223.139 31.456 223.619 31.368 224.003 31.192C224.387 31 224.699 30.736 224.939 30.4C225.179 30.064 225.347 29.664 225.443 29.2C225.539 28.736 225.587 28.224 225.587 27.664V23.536C225.587 23.008 225.531 22.512 225.419 22.048C225.307 21.584 225.131 21.184 224.891 20.848C224.651 20.512 224.339 20.248 223.955 20.056C223.571 19.848 223.107 19.744 222.563 19.744C222.019 19.744 221.555 19.848 221.171 20.056C220.787 20.248 220.475 20.512 220.235 20.848C219.995 21.184 219.819 21.584 219.707 22.048C219.595 22.512 219.539 23.008 219.539 23.536V27.664C219.539 28.224 219.587 28.736 219.683 29.2C219.779 29.664 219.947 30.064 220.187 30.4C220.427 30.736 220.739 31 221.123 31.192C221.507 31.368 221.987 31.456 222.563 31.456ZM236.25 30.976V18.784H235.818L234.234 24.544H231.21V24.256L233.226 17.2H239.418V30.976H243.594V34H231.498V30.976H236.25ZM249.937 25.6C249.937 25.056 250.137 24.584 250.537 24.184C250.937 23.784 251.409 23.584 251.953 23.584C252.497 23.584 252.969 23.784 253.369 24.184C253.769 24.584 253.969 25.056 253.969 25.6C253.969 26.144 253.769 26.616 253.369 27.016C252.969 27.416 252.497 27.616 251.953 27.616C251.409 27.616 250.937 27.416 250.537 27.016C250.137 26.616 249.937 26.144 249.937 25.6ZM245.761 23.728C245.761 21.552 246.305 19.864 247.393 18.664C248.497 17.464 250.017 16.864 251.953 16.864C253.889 16.864 255.401 17.464 256.489 18.664C257.593 19.864 258.145 21.552 258.145 23.728V27.472C258.145 29.712 257.593 31.416 256.489 32.584C255.401 33.752 253.889 34.336 251.953 34.336C250.017 34.336 248.497 33.752 247.393 32.584C246.305 31.416 245.761 29.712 245.761 27.472V23.728ZM251.953 31.456C252.529 31.456 253.009 31.368 253.393 31.192C253.777 31 254.089 30.736 254.329 30.4C254.569 30.064 254.737 29.664 254.833 29.2C254.929 28.736 254.977 28.224 254.977 27.664V23.536C254.977 23.008 254.921 22.512 254.809 22.048C254.697 21.584 254.521 21.184 254.281 20.848C254.041 20.512 253.729 20.248 253.345 20.056C252.961 19.848 252.497 19.744 251.953 19.744C251.409 19.744 250.945 19.848 250.561 20.056C250.177 20.248 249.865 20.512 249.625 20.848C249.385 21.184 249.209 21.584 249.097 22.048C248.985 22.512 248.929 23.008 248.929 23.536V27.664C248.929 28.224 248.977 28.736 249.073 29.2C249.169 29.664 249.337 30.064 249.577 30.4C249.817 30.736 250.129 31 250.513 31.192C250.897 31.368 251.377 31.456 251.953 31.456ZM191.156 48.6C191.156 48.056 191.356 47.584 191.756 47.184C192.156 46.784 192.628 46.584 193.172 46.584C193.716 46.584 194.188 46.784 194.588 47.184C194.988 47.584 195.188 48.056 195.188 48.6C195.188 49.144 194.988 49.616 194.588 50.016C194.188 50.416 193.716 50.616 193.172 50.616C192.628 50.616 192.156 50.416 191.756 50.016C191.356 49.616 191.156 49.144 191.156 48.6ZM186.98 46.728C186.98 44.552 187.524 42.864 188.612 41.664C189.716 40.464 191.236 39.864 193.172 39.864C195.108 39.864 196.62 40.464 197.708 41.664C198.812 42.864 199.364 44.552 199.364 46.728V50.472C199.364 52.712 198.812 54.416 197.708 55.584C196.62 56.752 195.108 57.336 193.172 57.336C191.236 57.336 189.716 56.752 188.612 55.584C187.524 54.416 186.98 52.712 186.98 50.472V46.728ZM193.172 54.456C193.748 54.456 194.228 54.368 194.612 54.192C194.996 54 195.308 53.736 195.548 53.4C195.788 53.064 195.956 52.664 196.052 52.2C196.148 51.736 196.196 51.224 196.196 50.664V46.536C196.196 46.008 196.14 45.512 196.028 45.048C195.916 44.584 195.74 44.184 195.5 43.848C195.26 43.512 194.948 43.248 194.564 43.056C194.18 42.848 193.716 42.744 193.172 42.744C192.628 42.744 192.164 42.848 191.78 43.056C191.396 43.248 191.084 43.512 190.844 43.848C190.604 44.184 190.428 44.584 190.316 45.048C190.204 45.512 190.148 46.008 190.148 46.536V50.664C190.148 51.224 190.196 51.736 190.292 52.2C190.388 52.664 190.556 53.064 190.796 53.4C191.036 53.736 191.348 54 191.732 54.192C192.116 54.368 192.596 54.456 193.172 54.456ZM206.859 53.976V41.784H206.427L204.843 47.544H201.819V47.256L203.835 40.2H210.027V53.976H214.203V57H202.107V53.976H206.859ZM235.242 48.6C235.242 48.056 235.442 47.584 235.842 47.184C236.242 46.784 236.714 46.584 237.258 46.584C237.802 46.584 238.274 46.784 238.674 47.184C239.074 47.584 239.274 48.056 239.274 48.6C239.274 49.144 239.074 49.616 238.674 50.016C238.274 50.416 237.802 50.616 237.258 50.616C236.714 50.616 236.242 50.416 235.842 50.016C235.442 49.616 235.242 49.144 235.242 48.6ZM231.066 46.728C231.066 44.552 231.61 42.864 232.698 41.664C233.802 40.464 235.322 39.864 237.258 39.864C239.194 39.864 240.706 40.464 241.794 41.664C242.898 42.864 243.45 44.552 243.45 46.728V50.472C243.45 52.712 242.898 54.416 241.794 55.584C240.706 56.752 239.194 57.336 237.258 57.336C235.322 57.336 233.802 56.752 232.698 55.584C231.61 54.416 231.066 52.712 231.066 50.472V46.728ZM237.258 54.456C237.834 54.456 238.314 54.368 238.698 54.192C239.082 54 239.394 53.736 239.634 53.4C239.874 53.064 240.042 52.664 240.138 52.2C240.234 51.736 240.282 51.224 240.282 50.664V46.536C240.282 46.008 240.226 45.512 240.114 45.048C240.002 44.584 239.826 44.184 239.586 43.848C239.346 43.512 239.034 43.248 238.65 43.056C238.266 42.848 237.802 42.744 237.258 42.744C236.714 42.744 236.25 42.848 235.866 43.056C235.482 43.248 235.17 43.512 234.93 43.848C234.69 44.184 234.514 44.584 234.402 45.048C234.29 45.512 234.234 46.008 234.234 46.536V50.664C234.234 51.224 234.282 51.736 234.378 52.2C234.474 52.664 234.642 53.064 234.882 53.4C235.122 53.736 235.434 54 235.818 54.192C236.202 54.368 236.682 54.456 237.258 54.456ZM250.945 53.976V41.784H250.513L248.929 47.544H245.905V47.256L247.921 40.2H254.113V53.976H258.289V57H246.193V53.976H250.945ZM264.633 48.6C264.633 48.056 264.833 47.584 265.233 47.184C265.633 46.784 266.105 46.584 266.649 46.584C267.193 46.584 267.665 46.784 268.065 47.184C268.465 47.584 268.665 48.056 268.665 48.6C268.665 49.144 268.465 49.616 268.065 50.016C267.665 50.416 267.193 50.616 266.649 50.616C266.105 50.616 265.633 50.416 265.233 50.016C264.833 49.616 264.633 49.144 264.633 48.6ZM260.457 46.728C260.457 44.552 261.001 42.864 262.089 41.664C263.193 40.464 264.713 39.864 266.649 39.864C268.585 39.864 270.097 40.464 271.185 41.664C272.289 42.864 272.841 44.552 272.841 46.728V50.472C272.841 52.712 272.289 54.416 271.185 55.584C270.097 56.752 268.585 57.336 266.649 57.336C264.713 57.336 263.193 56.752 262.089 55.584C261.001 54.416 260.457 52.712 260.457 50.472V46.728ZM266.649 54.456C267.225 54.456 267.705 54.368 268.089 54.192C268.473 54 268.785 53.736 269.025 53.4C269.265 53.064 269.433 52.664 269.529 52.2C269.625 51.736 269.673 51.224 269.673 50.664V46.536C269.673 46.008 269.617 45.512 269.505 45.048C269.393 44.584 269.217 44.184 268.977 43.848C268.737 43.512 268.425 43.248 268.041 43.056C267.657 42.848 267.193 42.744 266.649 42.744C266.105 42.744 265.641 42.848 265.257 43.056C264.873 43.248 264.561 43.512 264.321 43.848C264.081 44.184 263.905 44.584 263.793 45.048C263.681 45.512 263.625 46.008 263.625 46.536V50.664C263.625 51.224 263.673 51.736 263.769 52.2C263.865 52.664 264.033 53.064 264.273 53.4C264.513 53.736 264.825 54 265.209 54.192C265.593 54.368 266.073 54.456 266.649 54.456ZM148.078 76.976V64.784H147.646L146.062 70.544H143.038V70.256L145.054 63.2H151.246V76.976H155.422V80H143.326V76.976H148.078ZM161.766 71.6C161.766 71.056 161.966 70.584 162.366 70.184C162.766 69.784 163.238 69.584 163.782 69.584C164.326 69.584 164.798 69.784 165.198 70.184C165.598 70.584 165.798 71.056 165.798 71.6C165.798 72.144 165.598 72.616 165.198 73.016C164.798 73.416 164.326 73.616 163.782 73.616C163.238 73.616 162.766 73.416 162.366 73.016C161.966 72.616 161.766 72.144 161.766 71.6ZM157.59 69.728C157.59 67.552 158.134 65.864 159.222 64.664C160.326 63.464 161.846 62.864 163.782 62.864C165.718 62.864 167.23 63.464 168.318 64.664C169.422 65.864 169.974 67.552 169.974 69.728V73.472C169.974 75.712 169.422 77.416 168.318 78.584C167.23 79.752 165.718 80.336 163.782 80.336C161.846 80.336 160.326 79.752 159.222 78.584C158.134 77.416 157.59 75.712 157.59 73.472V69.728ZM163.782 77.456C164.358 77.456 164.838 77.368 165.222 77.192C165.606 77 165.918 76.736 166.158 76.4C166.398 76.064 166.566 75.664 166.662 75.2C166.758 74.736 166.806 74.224 166.806 73.664V69.536C166.806 69.008 166.75 68.512 166.638 68.048C166.526 67.584 166.35 67.184 166.11 66.848C165.87 66.512 165.558 66.248 165.174 66.056C164.79 65.848 164.326 65.744 163.782 65.744C163.238 65.744 162.774 65.848 162.39 66.056C162.006 66.248 161.694 66.512 161.454 66.848C161.214 67.184 161.038 67.584 160.926 68.048C160.814 68.512 160.758 69.008 160.758 69.536V73.664C160.758 74.224 160.806 74.736 160.902 75.2C160.998 75.664 161.166 76.064 161.406 76.4C161.646 76.736 161.958 77 162.342 77.192C162.726 77.368 163.206 77.456 163.782 77.456ZM177.469 76.976V64.784H177.037L175.453 70.544H172.429V70.256L174.445 63.2H180.637V76.976H184.813V80H172.717V76.976H177.469ZM191.156 71.6C191.156 71.056 191.356 70.584 191.756 70.184C192.156 69.784 192.628 69.584 193.172 69.584C193.716 69.584 194.188 69.784 194.588 70.184C194.988 70.584 195.188 71.056 195.188 71.6C195.188 72.144 194.988 72.616 194.588 73.016C194.188 73.416 193.716 73.616 193.172 73.616C192.628 73.616 192.156 73.416 191.756 73.016C191.356 72.616 191.156 72.144 191.156 71.6ZM186.98 69.728C186.98 67.552 187.524 65.864 188.612 64.664C189.716 63.464 191.236 62.864 193.172 62.864C195.108 62.864 196.62 63.464 197.708 64.664C198.812 65.864 199.364 67.552 199.364 69.728V73.472C199.364 75.712 198.812 77.416 197.708 78.584C196.62 79.752 195.108 80.336 193.172 80.336C191.236 80.336 189.716 79.752 188.612 78.584C187.524 77.416 186.98 75.712 186.98 73.472V69.728ZM193.172 77.456C193.748 77.456 194.228 77.368 194.612 77.192C194.996 77 195.308 76.736 195.548 76.4C195.788 76.064 195.956 75.664 196.052 75.2C196.148 74.736 196.196 74.224 196.196 73.664V69.536C196.196 69.008 196.14 68.512 196.028 68.048C195.916 67.584 195.74 67.184 195.5 66.848C195.26 66.512 194.948 66.248 194.564 66.056C194.18 65.848 193.716 65.744 193.172 65.744C192.628 65.744 192.164 65.848 191.78 66.056C191.396 66.248 191.084 66.512 190.844 66.848C190.604 67.184 190.428 67.584 190.316 68.048C190.204 68.512 190.148 69.008 190.148 69.536V73.664C190.148 74.224 190.196 74.736 190.292 75.2C190.388 75.664 190.556 76.064 190.796 76.4C191.036 76.736 191.348 77 191.732 77.192C192.116 77.368 192.596 77.456 193.172 77.456ZM206.859 76.976V64.784H206.427L204.843 70.544H201.819V70.256L203.835 63.2H210.027V76.976H214.203V80H202.107V76.976H206.859ZM221.555 76.976V64.784H221.123L219.539 70.544H216.515V70.256L218.531 63.2H224.723V76.976H228.899V80H216.803V76.976H221.555ZM162.773 99.976V87.784H162.342L160.758 93.544H157.734V93.256L159.75 86.2H165.942V99.976H170.118V103H158.021V99.976H162.773ZM176.461 94.6C176.461 94.056 176.661 93.584 177.061 93.184C177.461 92.784 177.933 92.584 178.477 92.584C179.021 92.584 179.493 92.784 179.893 93.184C180.293 93.584 180.493 94.056 180.493 94.6C180.493 95.144 180.293 95.616 179.893 96.016C179.493 96.416 179.021 96.616 178.477 96.616C177.933 96.616 177.461 96.416 177.061 96.016C176.661 95.616 176.461 95.144 176.461 94.6ZM172.285 92.728C172.285 90.552 172.829 88.864 173.917 87.664C175.021 86.464 176.541 85.864 178.477 85.864C180.413 85.864 181.925 86.464 183.013 87.664C184.117 88.864 184.669 90.552 184.669 92.728V96.472C184.669 98.712 184.117 100.416 183.013 101.584C181.925 102.752 180.413 103.336 178.477 103.336C176.541 103.336 175.021 102.752 173.917 101.584C172.829 100.416 172.285 98.712 172.285 96.472V92.728ZM178.477 100.456C179.053 100.456 179.533 100.368 179.917 100.192C180.301 100 180.613 99.736 180.853 99.4C181.093 99.064 181.261 98.664 181.357 98.2C181.453 97.736 181.501 97.224 181.501 96.664V92.536C181.501 92.008 181.445 91.512 181.333 91.048C181.221 90.584 181.045 90.184 180.805 89.848C180.565 89.512 180.253 89.248 179.869 89.056C179.485 88.848 179.021 88.744 178.477 88.744C177.933 88.744 177.469 88.848 177.085 89.056C176.701 89.248 176.389 89.512 176.149 89.848C175.909 90.184 175.733 90.584 175.621 91.048C175.509 91.512 175.453 92.008 175.453 92.536V96.664C175.453 97.224 175.501 97.736 175.597 98.2C175.693 98.664 175.861 99.064 176.101 99.4C176.341 99.736 176.653 100 177.037 100.192C177.421 100.368 177.901 100.456 178.477 100.456ZM192.164 99.976V87.784H191.732L190.148 93.544H187.124V93.256L189.14 86.2H195.332V99.976H199.508V103H187.412V99.976H192.164ZM220.547 94.6C220.547 94.056 220.747 93.584 221.147 93.184C221.547 92.784 222.019 92.584 222.563 92.584C223.107 92.584 223.579 92.784 223.979 93.184C224.379 93.584 224.579 94.056 224.579 94.6C224.579 95.144 224.379 95.616 223.979 96.016C223.579 96.416 223.107 96.616 222.563 96.616C222.019 96.616 221.547 96.416 221.147 96.016C220.747 95.616 220.547 95.144 220.547 94.6ZM216.371 92.728C216.371 90.552 216.915 88.864 218.003 87.664C219.107 86.464 220.627 85.864 222.563 85.864C224.499 85.864 226.011 86.464 227.099 87.664C228.203 88.864 228.755 90.552 228.755 92.728V96.472C228.755 98.712 228.203 100.416 227.099 101.584C226.011 102.752 224.499 103.336 222.563 103.336C220.627 103.336 219.107 102.752 218.003 101.584C216.915 100.416 216.371 98.712 216.371 96.472V92.728ZM222.563 100.456C223.139 100.456 223.619 100.368 224.003 100.192C224.387 100 224.699 99.736 224.939 99.4C225.179 99.064 225.347 98.664 225.443 98.2C225.539 97.736 225.587 97.224 225.587 96.664V92.536C225.587 92.008 225.531 91.512 225.419 91.048C225.307 90.584 225.131 90.184 224.891 89.848C224.651 89.512 224.339 89.248 223.955 89.056C223.571 88.848 223.107 88.744 222.563 88.744C222.019 88.744 221.555 88.848 221.171 89.056C220.787 89.248 220.475 89.512 220.235 89.848C219.995 90.184 219.819 90.584 219.707 91.048C219.595 91.512 219.539 92.008 219.539 92.536V96.664C219.539 97.224 219.587 97.736 219.683 98.2C219.779 98.664 219.947 99.064 220.187 99.4C220.427 99.736 220.739 100 221.123 100.192C221.507 100.368 221.987 100.456 222.563 100.456ZM235.242 94.6C235.242 94.056 235.442 93.584 235.842 93.184C236.242 92.784 236.714 92.584 237.258 92.584C237.802 92.584 238.274 92.784 238.674 93.184C239.074 93.584 239.274 94.056 239.274 94.6C239.274 95.144 239.074 95.616 238.674 96.016C238.274 96.416 237.802 96.616 237.258 96.616C236.714 96.616 236.242 96.416 235.842 96.016C235.442 95.616 235.242 95.144 235.242 94.6ZM231.066 92.728C231.066 90.552 231.61 88.864 232.698 87.664C233.802 86.464 235.322 85.864 237.258 85.864C239.194 85.864 240.706 86.464 241.794 87.664C242.898 88.864 243.45 90.552 243.45 92.728V96.472C243.45 98.712 242.898 100.416 241.794 101.584C240.706 102.752 239.194 103.336 237.258 103.336C235.322 103.336 233.802 102.752 232.698 101.584C231.61 100.416 231.066 98.712 231.066 96.472V92.728ZM237.258 100.456C237.834 100.456 238.314 100.368 238.698 100.192C239.082 100 239.394 99.736 239.634 99.4C239.874 99.064 240.042 98.664 240.138 98.2C240.234 97.736 240.282 97.224 240.282 96.664V92.536C240.282 92.008 240.226 91.512 240.114 91.048C240.002 90.584 239.826 90.184 239.586 89.848C239.346 89.512 239.034 89.248 238.65 89.056C238.266 88.848 237.802 88.744 237.258 88.744C236.714 88.744 236.25 88.848 235.866 89.056C235.482 89.248 235.17 89.512 234.93 89.848C234.69 90.184 234.514 90.584 234.402 91.048C234.29 91.512 234.234 92.008 234.234 92.536V96.664C234.234 97.224 234.282 97.736 234.378 98.2C234.474 98.664 234.642 99.064 234.882 99.4C235.122 99.736 235.434 100 235.818 100.192C236.202 100.368 236.682 100.456 237.258 100.456ZM250.945 99.976V87.784H250.513L248.929 93.544H245.905V93.256L247.921 86.2H254.113V99.976H258.289V103H246.193V99.976H250.945ZM177.469 122.976V110.784H177.037L175.453 116.544H172.429V116.256L174.445 109.2H180.637V122.976H184.813V126H172.717V122.976H177.469ZM191.156 117.6C191.156 117.056 191.356 116.584 191.756 116.184C192.156 115.784 192.628 115.584 193.172 115.584C193.716 115.584 194.188 115.784 194.588 116.184C194.988 116.584 195.188 117.056 195.188 117.6C195.188 118.144 194.988 118.616 194.588 119.016C194.188 119.416 193.716 119.616 193.172 119.616C192.628 119.616 192.156 119.416 191.756 119.016C191.356 118.616 191.156 118.144 191.156 117.6ZM186.98 115.728C186.98 113.552 187.524 111.864 188.612 110.664C189.716 109.464 191.236 108.864 193.172 108.864C195.108 108.864 196.62 109.464 197.708 110.664C198.812 111.864 199.364 113.552 199.364 115.728V119.472C199.364 121.712 198.812 123.416 197.708 124.584C196.62 125.752 195.108 126.336 193.172 126.336C191.236 126.336 189.716 125.752 188.612 124.584C187.524 123.416 186.98 121.712 186.98 119.472V115.728ZM193.172 123.456C193.748 123.456 194.228 123.368 194.612 123.192C194.996 123 195.308 122.736 195.548 122.4C195.788 122.064 195.956 121.664 196.052 121.2C196.148 120.736 196.196 120.224 196.196 119.664V115.536C196.196 115.008 196.14 114.512 196.028 114.048C195.916 113.584 195.74 113.184 195.5 112.848C195.26 112.512 194.948 112.248 194.564 112.056C194.18 111.848 193.716 111.744 193.172 111.744C192.628 111.744 192.164 111.848 191.78 112.056C191.396 112.248 191.084 112.512 190.844 112.848C190.604 113.184 190.428 113.584 190.316 114.048C190.204 114.512 190.148 115.008 190.148 115.536V119.664C190.148 120.224 190.196 120.736 190.292 121.2C190.388 121.664 190.556 122.064 190.796 122.4C191.036 122.736 191.348 123 191.732 123.192C192.116 123.368 192.596 123.456 193.172 123.456ZM206.859 122.976V110.784H206.427L204.843 116.544H201.819V116.256L203.835 109.2H210.027V122.976H214.203V126H202.107V122.976H206.859ZM220.547 117.6C220.547 117.056 220.747 116.584 221.147 116.184C221.547 115.784 222.019 115.584 222.563 115.584C223.107 115.584 223.579 115.784 223.979 116.184C224.379 116.584 224.579 117.056 224.579 117.6C224.579 118.144 224.379 118.616 223.979 119.016C223.579 119.416 223.107 119.616 222.563 119.616C222.019 119.616 221.547 119.416 221.147 119.016C220.747 118.616 220.547 118.144 220.547 117.6ZM216.371 115.728C216.371 113.552 216.915 111.864 218.003 110.664C219.107 109.464 220.627 108.864 222.563 108.864C224.499 108.864 226.011 109.464 227.099 110.664C228.203 111.864 228.755 113.552 228.755 115.728V119.472C228.755 121.712 228.203 123.416 227.099 124.584C226.011 125.752 224.499 126.336 222.563 126.336C220.627 126.336 219.107 125.752 218.003 124.584C216.915 123.416 216.371 121.712 216.371 119.472V115.728ZM222.563 123.456C223.139 123.456 223.619 123.368 224.003 123.192C224.387 123 224.699 122.736 224.939 122.4C225.179 122.064 225.347 121.664 225.443 121.2C225.539 120.736 225.587 120.224 225.587 119.664V115.536C225.587 115.008 225.531 114.512 225.419 114.048C225.307 113.584 225.131 113.184 224.891 112.848C224.651 112.512 224.339 112.248 223.955 112.056C223.571 111.848 223.107 111.744 222.563 111.744C222.019 111.744 221.555 111.848 221.171 112.056C220.787 112.248 220.475 112.512 220.235 112.848C219.995 113.184 219.819 113.584 219.707 114.048C219.595 114.512 219.539 115.008 219.539 115.536V119.664C219.539 120.224 219.587 120.736 219.683 121.2C219.779 121.664 219.947 122.064 220.187 122.4C220.427 122.736 220.739 123 221.123 123.192C221.507 123.368 221.987 123.456 222.563 123.456ZM235.242 117.6C235.242 117.056 235.442 116.584 235.842 116.184C236.242 115.784 236.714 115.584 237.258 115.584C237.802 115.584 238.274 115.784 238.674 116.184C239.074 116.584 239.274 117.056 239.274 117.6C239.274 118.144 239.074 118.616 238.674 119.016C238.274 119.416 237.802 119.616 237.258 119.616C236.714 119.616 236.242 119.416 235.842 119.016C235.442 118.616 235.242 118.144 235.242 117.6ZM231.066 115.728C231.066 113.552 231.61 111.864 232.698 110.664C233.802 109.464 235.322 108.864 237.258 108.864C239.194 108.864 240.706 109.464 241.794 110.664C242.898 111.864 243.45 113.552 243.45 115.728V119.472C243.45 121.712 242.898 123.416 241.794 124.584C240.706 125.752 239.194 126.336 237.258 126.336C235.322 126.336 233.802 125.752 232.698 124.584C231.61 123.416 231.066 121.712 231.066 119.472V115.728ZM237.258 123.456C237.834 123.456 238.314 123.368 238.698 123.192C239.082 123 239.394 122.736 239.634 122.4C239.874 122.064 240.042 121.664 240.138 121.2C240.234 120.736 240.282 120.224 240.282 119.664V115.536C240.282 115.008 240.226 114.512 240.114 114.048C240.002 113.584 239.826 113.184 239.586 112.848C239.346 112.512 239.034 112.248 238.65 112.056C238.266 111.848 237.802 111.744 237.258 111.744C236.714 111.744 236.25 111.848 235.866 112.056C235.482 112.248 235.17 112.512 234.93 112.848C234.69 113.184 234.514 113.584 234.402 114.048C234.29 114.512 234.234 115.008 234.234 115.536V119.664C234.234 120.224 234.282 120.736 234.378 121.2C234.474 121.664 234.642 122.064 234.882 122.4C235.122 122.736 235.434 123 235.818 123.192C236.202 123.368 236.682 123.456 237.258 123.456ZM162.773 145.976V133.784H162.342L160.758 139.544H157.734V139.256L159.75 132.2H165.942V145.976H170.118V149H158.021V145.976H162.773ZM176.461 140.6C176.461 140.056 176.661 139.584 177.061 139.184C177.461 138.784 177.933 138.584 178.477 138.584C179.021 138.584 179.493 138.784 179.893 139.184C180.293 139.584 180.493 140.056 180.493 140.6C180.493 141.144 180.293 141.616 179.893 142.016C179.493 142.416 179.021 142.616 178.477 142.616C177.933 142.616 177.461 142.416 177.061 142.016C176.661 141.616 176.461 141.144 176.461 140.6ZM172.285 138.728C172.285 136.552 172.829 134.864 173.917 133.664C175.021 132.464 176.541 131.864 178.477 131.864C180.413 131.864 181.925 132.464 183.013 133.664C184.117 134.864 184.669 136.552 184.669 138.728V142.472C184.669 144.712 184.117 146.416 183.013 147.584C181.925 148.752 180.413 149.336 178.477 149.336C176.541 149.336 175.021 148.752 173.917 147.584C172.829 146.416 172.285 144.712 172.285 142.472V138.728ZM178.477 146.456C179.053 146.456 179.533 146.368 179.917 146.192C180.301 146 180.613 145.736 180.853 145.4C181.093 145.064 181.261 144.664 181.357 144.2C181.453 143.736 181.501 143.224 181.501 142.664V138.536C181.501 138.008 181.445 137.512 181.333 137.048C181.221 136.584 181.045 136.184 180.805 135.848C180.565 135.512 180.253 135.248 179.869 135.056C179.485 134.848 179.021 134.744 178.477 134.744C177.933 134.744 177.469 134.848 177.085 135.056C176.701 135.248 176.389 135.512 176.149 135.848C175.909 136.184 175.733 136.584 175.621 137.048C175.509 137.512 175.453 138.008 175.453 138.536V142.664C175.453 143.224 175.501 143.736 175.597 144.2C175.693 144.664 175.861 145.064 176.101 145.4C176.341 145.736 176.653 146 177.037 146.192C177.421 146.368 177.901 146.456 178.477 146.456ZM192.164 145.976V133.784H191.732L190.148 139.544H187.124V139.256L189.14 132.2H195.332V145.976H199.508V149H187.412V145.976H192.164ZM206.859 145.976V133.784H206.427L204.843 139.544H201.819V139.256L203.835 132.2H210.027V145.976H214.203V149H202.107V145.976H206.859ZM235.242 140.6C235.242 140.056 235.442 139.584 235.842 139.184C236.242 138.784 236.714 138.584 237.258 138.584C237.802 138.584 238.274 138.784 238.674 139.184C239.074 139.584 239.274 140.056 239.274 140.6C239.274 141.144 239.074 141.616 238.674 142.016C238.274 142.416 237.802 142.616 237.258 142.616C236.714 142.616 236.242 142.416 235.842 142.016C235.442 141.616 235.242 141.144 235.242 140.6ZM231.066 138.728C231.066 136.552 231.61 134.864 232.698 133.664C233.802 132.464 235.322 131.864 237.258 131.864C239.194 131.864 240.706 132.464 241.794 133.664C242.898 134.864 243.45 136.552 243.45 138.728V142.472C243.45 144.712 242.898 146.416 241.794 147.584C240.706 148.752 239.194 149.336 237.258 149.336C235.322 149.336 233.802 148.752 232.698 147.584C231.61 146.416 231.066 144.712 231.066 142.472V138.728ZM237.258 146.456C237.834 146.456 238.314 146.368 238.698 146.192C239.082 146 239.394 145.736 239.634 145.4C239.874 145.064 240.042 144.664 240.138 144.2C240.234 143.736 240.282 143.224 240.282 142.664V138.536C240.282 138.008 240.226 137.512 240.114 137.048C240.002 136.584 239.826 136.184 239.586 135.848C239.346 135.512 239.034 135.248 238.65 135.056C238.266 134.848 237.802 134.744 237.258 134.744C236.714 134.744 236.25 134.848 235.866 135.056C235.482 135.248 235.17 135.512 234.93 135.848C234.69 136.184 234.514 136.584 234.402 137.048C234.29 137.512 234.234 138.008 234.234 138.536V142.664C234.234 143.224 234.282 143.736 234.378 144.2C234.474 144.664 234.642 145.064 234.882 145.4C235.122 145.736 235.434 146 235.818 146.192C236.202 146.368 236.682 146.456 237.258 146.456ZM250.945 145.976V133.784H250.513L248.929 139.544H245.905V139.256L247.921 132.2H254.113V145.976H258.289V149H246.193V145.976H250.945ZM221.555 168.976V156.784H221.123L219.539 162.544H216.515V162.256L218.531 155.2H224.723V168.976H228.899V172H216.803V168.976H221.555ZM236.25 168.976V156.784H235.818L234.234 162.544H231.21V162.256L233.226 155.2H239.418V168.976H243.594V172H231.498V168.976H236.25ZM249.937 163.6C249.937 163.056 250.137 162.584 250.537 162.184C250.937 161.784 251.409 161.584 251.953 161.584C252.497 161.584 252.969 161.784 253.369 162.184C253.769 162.584 253.969 163.056 253.969 163.6C253.969 164.144 253.769 164.616 253.369 165.016C252.969 165.416 252.497 165.616 251.953 165.616C251.409 165.616 250.937 165.416 250.537 165.016C250.137 164.616 249.937 164.144 249.937 163.6ZM245.761 161.728C245.761 159.552 246.305 157.864 247.393 156.664C248.497 155.464 250.017 154.864 251.953 154.864C253.889 154.864 255.401 155.464 256.489 156.664C257.593 157.864 258.145 159.552 258.145 161.728V165.472C258.145 167.712 257.593 169.416 256.489 170.584C255.401 171.752 253.889 172.336 251.953 172.336C250.017 172.336 248.497 171.752 247.393 170.584C246.305 169.416 245.761 167.712 245.761 165.472V161.728ZM251.953 169.456C252.529 169.456 253.009 169.368 253.393 169.192C253.777 169 254.089 168.736 254.329 168.4C254.569 168.064 254.737 167.664 254.833 167.2C254.929 166.736 254.977 166.224 254.977 165.664V161.536C254.977 161.008 254.921 160.512 254.809 160.048C254.697 159.584 254.521 159.184 254.281 158.848C254.041 158.512 253.729 158.248 253.345 158.056C252.961 157.848 252.497 157.744 251.953 157.744C251.409 157.744 250.945 157.848 250.561 158.056C250.177 158.248 249.865 158.512 249.625 158.848C249.385 159.184 249.209 159.584 249.097 160.048C248.985 160.512 248.929 161.008 248.929 161.536V165.664C248.929 166.224 248.977 166.736 249.073 167.2C249.169 167.664 249.337 168.064 249.577 168.4C249.817 168.736 250.129 169 250.513 169.192C250.897 169.368 251.377 169.456 251.953 169.456ZM192.164 191.976V179.784H191.732L190.148 185.544H187.124V185.256L189.14 178.2H195.332V191.976H199.508V195H187.412V191.976H192.164ZM205.851 186.6C205.851 186.056 206.051 185.584 206.451 185.184C206.851 184.784 207.323 184.584 207.867 184.584C208.411 184.584 208.883 184.784 209.283 185.184C209.683 185.584 209.883 186.056 209.883 186.6C209.883 187.144 209.683 187.616 209.283 188.016C208.883 188.416 208.411 188.616 207.867 188.616C207.323 188.616 206.851 188.416 206.451 188.016C206.051 187.616 205.851 187.144 205.851 186.6ZM201.675 184.728C201.675 182.552 202.219 180.864 203.307 179.664C204.411 178.464 205.931 177.864 207.867 177.864C209.803 177.864 211.315 178.464 212.403 179.664C213.507 180.864 214.059 182.552 214.059 184.728V188.472C214.059 190.712 213.507 192.416 212.403 193.584C211.315 194.752 209.803 195.336 207.867 195.336C205.931 195.336 204.411 194.752 203.307 193.584C202.219 192.416 201.675 190.712 201.675 188.472V184.728ZM207.867 192.456C208.443 192.456 208.923 192.368 209.307 192.192C209.691 192 210.003 191.736 210.243 191.4C210.483 191.064 210.651 190.664 210.747 190.2C210.843 189.736 210.891 189.224 210.891 188.664V184.536C210.891 184.008 210.835 183.512 210.723 183.048C210.611 182.584 210.435 182.184 210.195 181.848C209.955 181.512 209.643 181.248 209.259 181.056C208.875 180.848 208.411 180.744 207.867 180.744C207.323 180.744 206.859 180.848 206.475 181.056C206.091 181.248 205.779 181.512 205.539 181.848C205.299 182.184 205.123 182.584 205.011 183.048C204.899 183.512 204.843 184.008 204.843 184.536V188.664C204.843 189.224 204.891 189.736 204.987 190.2C205.083 190.664 205.251 191.064 205.491 191.4C205.731 191.736 206.043 192 206.427 192.192C206.811 192.368 207.291 192.456 207.867 192.456ZM221.555 191.976V179.784H221.123L219.539 185.544H216.515V185.256L218.531 178.2H224.723V191.976H228.899V195H216.803V191.976H221.555ZM235.242 186.6C235.242 186.056 235.442 185.584 235.842 185.184C236.242 184.784 236.714 184.584 237.258 184.584C237.802 184.584 238.274 184.784 238.674 185.184C239.074 185.584 239.274 186.056 239.274 186.6C239.274 187.144 239.074 187.616 238.674 188.016C238.274 188.416 237.802 188.616 237.258 188.616C236.714 188.616 236.242 188.416 235.842 188.016C235.442 187.616 235.242 187.144 235.242 186.6ZM231.066 184.728C231.066 182.552 231.61 180.864 232.698 179.664C233.802 178.464 235.322 177.864 237.258 177.864C239.194 177.864 240.706 178.464 241.794 179.664C242.898 180.864 243.45 182.552 243.45 184.728V188.472C243.45 190.712 242.898 192.416 241.794 193.584C240.706 194.752 239.194 195.336 237.258 195.336C235.322 195.336 233.802 194.752 232.698 193.584C231.61 192.416 231.066 190.712 231.066 188.472V184.728ZM237.258 192.456C237.834 192.456 238.314 192.368 238.698 192.192C239.082 192 239.394 191.736 239.634 191.4C239.874 191.064 240.042 190.664 240.138 190.2C240.234 189.736 240.282 189.224 240.282 188.664V184.536C240.282 184.008 240.226 183.512 240.114 183.048C240.002 182.584 239.826 182.184 239.586 181.848C239.346 181.512 239.034 181.248 238.65 181.056C238.266 180.848 237.802 180.744 237.258 180.744C236.714 180.744 236.25 180.848 235.866 181.056C235.482 181.248 235.17 181.512 234.93 181.848C234.69 182.184 234.514 182.584 234.402 183.048C234.29 183.512 234.234 184.008 234.234 184.536V188.664C234.234 189.224 234.282 189.736 234.378 190.2C234.474 190.664 234.642 191.064 234.882 191.4C235.122 191.736 235.434 192 235.818 192.192C236.202 192.368 236.682 192.456 237.258 192.456ZM249.937 186.6C249.937 186.056 250.137 185.584 250.537 185.184C250.937 184.784 251.409 184.584 251.953 184.584C252.497 184.584 252.969 184.784 253.369 185.184C253.769 185.584 253.969 186.056 253.969 186.6C253.969 187.144 253.769 187.616 253.369 188.016C252.969 188.416 252.497 188.616 251.953 188.616C251.409 188.616 250.937 188.416 250.537 188.016C250.137 187.616 249.937 187.144 249.937 186.6ZM245.761 184.728C245.761 182.552 246.305 180.864 247.393 179.664C248.497 178.464 250.017 177.864 251.953 177.864C253.889 177.864 255.401 178.464 256.489 179.664C257.593 180.864 258.145 182.552 258.145 184.728V188.472C258.145 190.712 257.593 192.416 256.489 193.584C255.401 194.752 253.889 195.336 251.953 195.336C250.017 195.336 248.497 194.752 247.393 193.584C246.305 192.416 245.761 190.712 245.761 188.472V184.728ZM251.953 192.456C252.529 192.456 253.009 192.368 253.393 192.192C253.777 192 254.089 191.736 254.329 191.4C254.569 191.064 254.737 190.664 254.833 190.2C254.929 189.736 254.977 189.224 254.977 188.664V184.536C254.977 184.008 254.921 183.512 254.809 183.048C254.697 182.584 254.521 182.184 254.281 181.848C254.041 181.512 253.729 181.248 253.345 181.056C252.961 180.848 252.497 180.744 251.953 180.744C251.409 180.744 250.945 180.848 250.561 181.056C250.177 181.248 249.865 181.512 249.625 181.848C249.385 182.184 249.209 182.584 249.097 183.048C248.985 183.512 248.929 184.008 248.929 184.536V188.664C248.929 189.224 248.977 189.736 249.073 190.2C249.169 190.664 249.337 191.064 249.577 191.4C249.817 191.736 250.129 192 250.513 192.192C250.897 192.368 251.377 192.456 251.953 192.456ZM206.859 214.976V202.784H206.427L204.843 208.544H201.819V208.256L203.835 201.2H210.027V214.976H214.203V218H202.107V214.976H206.859ZM220.547 209.6C220.547 209.056 220.747 208.584 221.147 208.184C221.547 207.784 222.019 207.584 222.563 207.584C223.107 207.584 223.579 207.784 223.979 208.184C224.379 208.584 224.579 209.056 224.579 209.6C224.579 210.144 224.379 210.616 223.979 211.016C223.579 211.416 223.107 211.616 222.563 211.616C222.019 211.616 221.547 211.416 221.147 211.016C220.747 210.616 220.547 210.144 220.547 209.6ZM216.371 207.728C216.371 205.552 216.915 203.864 218.003 202.664C219.107 201.464 220.627 200.864 222.563 200.864C224.499 200.864 226.011 201.464 227.099 202.664C228.203 203.864 228.755 205.552 228.755 207.728V211.472C228.755 213.712 228.203 215.416 227.099 216.584C226.011 217.752 224.499 218.336 222.563 218.336C220.627 218.336 219.107 217.752 218.003 216.584C216.915 215.416 216.371 213.712 216.371 211.472V207.728ZM222.563 215.456C223.139 215.456 223.619 215.368 224.003 215.192C224.387 215 224.699 214.736 224.939 214.4C225.179 214.064 225.347 213.664 225.443 213.2C225.539 212.736 225.587 212.224 225.587 211.664V207.536C225.587 207.008 225.531 206.512 225.419 206.048C225.307 205.584 225.131 205.184 224.891 204.848C224.651 204.512 224.339 204.248 223.955 204.056C223.571 203.848 223.107 203.744 222.563 203.744C222.019 203.744 221.555 203.848 221.171 204.056C220.787 204.248 220.475 204.512 220.235 204.848C219.995 205.184 219.819 205.584 219.707 206.048C219.595 206.512 219.539 207.008 219.539 207.536V211.664C219.539 212.224 219.587 212.736 219.683 213.2C219.779 213.664 219.947 214.064 220.187 214.4C220.427 214.736 220.739 215 221.123 215.192C221.507 215.368 221.987 215.456 222.563 215.456ZM236.25 214.976V202.784H235.818L234.234 208.544H231.21V208.256L233.226 201.2H239.418V214.976H243.594V218H231.498V214.976H236.25ZM206.859 237.976V225.784H206.427L204.843 231.544H201.819V231.256L203.835 224.2H210.027V237.976H214.203V241H202.107V237.976H206.859ZM250.945 237.976V225.784H250.513L248.929 231.544H245.905V231.256L247.921 224.2H254.113V237.976H258.289V241H246.193V237.976H250.945ZM221.555 260.976V248.784H221.123L219.539 254.544H216.515V254.256L218.531 247.2H224.723V260.976H228.899V264H216.803V260.976H221.555ZM235.242 255.6C235.242 255.056 235.442 254.584 235.842 254.184C236.242 253.784 236.714 253.584 237.258 253.584C237.802 253.584 238.274 253.784 238.674 254.184C239.074 254.584 239.274 255.056 239.274 255.6C239.274 256.144 239.074 256.616 238.674 257.016C238.274 257.416 237.802 257.616 237.258 257.616C236.714 257.616 236.242 257.416 235.842 257.016C235.442 256.616 235.242 256.144 235.242 255.6ZM231.066 253.728C231.066 251.552 231.61 249.864 232.698 248.664C233.802 247.464 235.322 246.864 237.258 246.864C239.194 246.864 240.706 247.464 241.794 248.664C242.898 249.864 243.45 251.552 243.45 253.728V257.472C243.45 259.712 242.898 261.416 241.794 262.584C240.706 263.752 239.194 264.336 237.258 264.336C235.322 264.336 233.802 263.752 232.698 262.584C231.61 261.416 231.066 259.712 231.066 257.472V253.728ZM237.258 261.456C237.834 261.456 238.314 261.368 238.698 261.192C239.082 261 239.394 260.736 239.634 260.4C239.874 260.064 240.042 259.664 240.138 259.2C240.234 258.736 240.282 258.224 240.282 257.664V253.536C240.282 253.008 240.226 252.512 240.114 252.048C240.002 251.584 239.826 251.184 239.586 250.848C239.346 250.512 239.034 250.248 238.65 250.056C238.266 249.848 237.802 249.744 237.258 249.744C236.714 249.744 236.25 249.848 235.866 250.056C235.482 250.248 235.17 250.512 234.93 250.848C234.69 251.184 234.514 251.584 234.402 252.048C234.29 252.512 234.234 253.008 234.234 253.536V257.664C234.234 258.224 234.282 258.736 234.378 259.2C234.474 259.664 234.642 260.064 234.882 260.4C235.122 260.736 235.434 261 235.818 261.192C236.202 261.368 236.682 261.456 237.258 261.456ZM250.945 260.976V248.784H250.513L248.929 254.544H245.905V254.256L247.921 247.2H254.113V260.976H258.289V264H246.193V260.976H250.945ZM264.633 255.6C264.633 255.056 264.833 254.584 265.233 254.184C265.633 253.784 266.105 253.584 266.649 253.584C267.193 253.584 267.665 253.784 268.065 254.184C268.465 254.584 268.665 255.056 268.665 255.6C268.665 256.144 268.465 256.616 268.065 257.016C267.665 257.416 267.193 257.616 266.649 257.616C266.105 257.616 265.633 257.416 265.233 257.016C264.833 256.616 264.633 256.144 264.633 255.6ZM260.457 253.728C260.457 251.552 261.001 249.864 262.089 248.664C263.193 247.464 264.713 246.864 266.649 246.864C268.585 246.864 270.097 247.464 271.185 248.664C272.289 249.864 272.841 251.552 272.841 253.728V257.472C272.841 259.712 272.289 261.416 271.185 262.584C270.097 263.752 268.585 264.336 266.649 264.336C264.713 264.336 263.193 263.752 262.089 262.584C261.001 261.416 260.457 259.712 260.457 257.472V253.728ZM266.649 261.456C267.225 261.456 267.705 261.368 268.089 261.192C268.473 261 268.785 260.736 269.025 260.4C269.265 260.064 269.433 259.664 269.529 259.2C269.625 258.736 269.673 258.224 269.673 257.664V253.536C269.673 253.008 269.617 252.512 269.505 252.048C269.393 251.584 269.217 251.184 268.977 250.848C268.737 250.512 268.425 250.248 268.041 250.056C267.657 249.848 267.193 249.744 266.649 249.744C266.105 249.744 265.641 249.848 265.257 250.056C264.873 250.248 264.561 250.512 264.321 250.848C264.081 251.184 263.905 251.584 263.793 252.048C263.681 252.512 263.625 253.008 263.625 253.536V257.664C263.625 258.224 263.673 258.736 263.769 259.2C263.865 259.664 264.033 260.064 264.273 260.4C264.513 260.736 264.825 261 265.209 261.192C265.593 261.368 266.073 261.456 266.649 261.456ZM206.859 283.976V271.784H206.427L204.843 277.544H201.819V277.256L203.835 270.2H210.027V283.976H214.203V287H202.107V283.976H206.859ZM220.547 278.6C220.547 278.056 220.747 277.584 221.147 277.184C221.547 276.784 222.019 276.584 222.563 276.584C223.107 276.584 223.579 276.784 223.979 277.184C224.379 277.584 224.579 278.056 224.579 278.6C224.579 279.144 224.379 279.616 223.979 280.016C223.579 280.416 223.107 280.616 222.563 280.616C222.019 280.616 221.547 280.416 221.147 280.016C220.747 279.616 220.547 279.144 220.547 278.6ZM216.371 276.728C216.371 274.552 216.915 272.864 218.003 271.664C219.107 270.464 220.627 269.864 222.563 269.864C224.499 269.864 226.011 270.464 227.099 271.664C228.203 272.864 228.755 274.552 228.755 276.728V280.472C228.755 282.712 228.203 284.416 227.099 285.584C226.011 286.752 224.499 287.336 222.563 287.336C220.627 287.336 219.107 286.752 218.003 285.584C216.915 284.416 216.371 282.712 216.371 280.472V276.728ZM222.563 284.456C223.139 284.456 223.619 284.368 224.003 284.192C224.387 284 224.699 283.736 224.939 283.4C225.179 283.064 225.347 282.664 225.443 282.2C225.539 281.736 225.587 281.224 225.587 280.664V276.536C225.587 276.008 225.531 275.512 225.419 275.048C225.307 274.584 225.131 274.184 224.891 273.848C224.651 273.512 224.339 273.248 223.955 273.056C223.571 272.848 223.107 272.744 222.563 272.744C222.019 272.744 221.555 272.848 221.171 273.056C220.787 273.248 220.475 273.512 220.235 273.848C219.995 274.184 219.819 274.584 219.707 275.048C219.595 275.512 219.539 276.008 219.539 276.536V280.664C219.539 281.224 219.587 281.736 219.683 282.2C219.779 282.664 219.947 283.064 220.187 283.4C220.427 283.736 220.739 284 221.123 284.192C221.507 284.368 221.987 284.456 222.563 284.456ZM235.242 278.6C235.242 278.056 235.442 277.584 235.842 277.184C236.242 276.784 236.714 276.584 237.258 276.584C237.802 276.584 238.274 276.784 238.674 277.184C239.074 277.584 239.274 278.056 239.274 278.6C239.274 279.144 239.074 279.616 238.674 280.016C238.274 280.416 237.802 280.616 237.258 280.616C236.714 280.616 236.242 280.416 235.842 280.016C235.442 279.616 235.242 279.144 235.242 278.6ZM231.066 276.728C231.066 274.552 231.61 272.864 232.698 271.664C233.802 270.464 235.322 269.864 237.258 269.864C239.194 269.864 240.706 270.464 241.794 271.664C242.898 272.864 243.45 274.552 243.45 276.728V280.472C243.45 282.712 242.898 284.416 241.794 285.584C240.706 286.752 239.194 287.336 237.258 287.336C235.322 287.336 233.802 286.752 232.698 285.584C231.61 284.416 231.066 282.712 231.066 280.472V276.728ZM237.258 284.456C237.834 284.456 238.314 284.368 238.698 284.192C239.082 284 239.394 283.736 239.634 283.4C239.874 283.064 240.042 282.664 240.138 282.2C240.234 281.736 240.282 281.224 240.282 280.664V276.536C240.282 276.008 240.226 275.512 240.114 275.048C240.002 274.584 239.826 274.184 239.586 273.848C239.346 273.512 239.034 273.248 238.65 273.056C238.266 272.848 237.802 272.744 237.258 272.744C236.714 272.744 236.25 272.848 235.866 273.056C235.482 273.248 235.17 273.512 234.93 273.848C234.69 274.184 234.514 274.584 234.402 275.048C234.29 275.512 234.234 276.008 234.234 276.536V280.664C234.234 281.224 234.282 281.736 234.378 282.2C234.474 282.664 234.642 283.064 234.882 283.4C235.122 283.736 235.434 284 235.818 284.192C236.202 284.368 236.682 284.456 237.258 284.456ZM265.641 283.976V271.784H265.209L263.625 277.544H260.601V277.256L262.617 270.2H268.809V283.976H272.985V287H260.889V283.976H265.641Z" fill="#34393D"/>
<path d="M265.641 30.976V18.784H265.209L263.625 24.544H260.601V24.256L262.617 17.2H268.809V30.976H272.985V34H260.889V30.976H265.641ZM236.25 76.976V64.784H235.818L234.234 70.544H231.21V70.256L233.226 63.2H239.418V76.976H243.594V80H231.498V76.976H236.25ZM249.937 71.6C249.937 71.056 250.137 70.584 250.537 70.184C250.937 69.784 251.409 69.584 251.953 69.584C252.497 69.584 252.969 69.784 253.369 70.184C253.769 70.584 253.969 71.056 253.969 71.6C253.969 72.144 253.769 72.616 253.369 73.016C252.969 73.416 252.497 73.616 251.953 73.616C251.409 73.616 250.937 73.416 250.537 73.016C250.137 72.616 249.937 72.144 249.937 71.6ZM245.761 69.728C245.761 67.552 246.305 65.864 247.393 64.664C248.497 63.464 250.017 62.864 251.953 62.864C253.889 62.864 255.401 63.464 256.489 64.664C257.593 65.864 258.145 67.552 258.145 69.728V73.472C258.145 75.712 257.593 77.416 256.489 78.584C255.401 79.752 253.889 80.336 251.953 80.336C250.017 80.336 248.497 79.752 247.393 78.584C246.305 77.416 245.761 75.712 245.761 73.472V69.728ZM251.953 77.456C252.529 77.456 253.009 77.368 253.393 77.192C253.777 77 254.089 76.736 254.329 76.4C254.569 76.064 254.737 75.664 254.833 75.2C254.929 74.736 254.977 74.224 254.977 73.664V69.536C254.977 69.008 254.921 68.512 254.809 68.048C254.697 67.584 254.521 67.184 254.281 66.848C254.041 66.512 253.729 66.248 253.345 66.056C252.961 65.848 252.497 65.744 251.953 65.744C251.409 65.744 250.945 65.848 250.561 66.056C250.177 66.248 249.865 66.512 249.625 66.848C249.385 67.184 249.209 67.584 249.097 68.048C248.985 68.512 248.929 69.008 248.929 69.536V73.664C248.929 74.224 248.977 74.736 249.073 75.2C249.169 75.664 249.337 76.064 249.577 76.4C249.817 76.736 250.129 77 250.513 77.192C250.897 77.368 251.377 77.456 251.953 77.456ZM206.859 99.976V87.784H206.427L204.843 93.544H201.819V93.256L203.835 86.2H210.027V99.976H214.203V103H202.107V99.976H206.859ZM220.547 232.6C220.547 232.056 220.747 231.584 221.147 231.184C221.547 230.784 222.019 230.584 222.563 230.584C223.107 230.584 223.579 230.784 223.979 231.184C224.379 231.584 224.579 232.056 224.579 232.6C224.579 233.144 224.379 233.616 223.979 234.016C223.579 234.416 223.107 234.616 222.563 234.616C222.019 234.616 221.547 234.416 221.147 234.016C220.747 233.616 220.547 233.144 220.547 232.6ZM216.371 230.728C216.371 228.552 216.915 226.864 218.003 225.664C219.107 224.464 220.627 223.864 222.563 223.864C224.499 223.864 226.011 224.464 227.099 225.664C228.203 226.864 228.755 228.552 228.755 230.728V234.472C228.755 236.712 228.203 238.416 227.099 239.584C226.011 240.752 224.499 241.336 222.563 241.336C220.627 241.336 219.107 240.752 218.003 239.584C216.915 238.416 216.371 236.712 216.371 234.472V230.728ZM222.563 238.456C223.139 238.456 223.619 238.368 224.003 238.192C224.387 238 224.699 237.736 224.939 237.4C225.179 237.064 225.347 236.664 225.443 236.2C225.539 235.736 225.587 235.224 225.587 234.664V230.536C225.587 230.008 225.531 229.512 225.419 229.048C225.307 228.584 225.131 228.184 224.891 227.848C224.651 227.512 224.339 227.248 223.955 227.056C223.571 226.848 223.107 226.744 222.563 226.744C222.019 226.744 221.555 226.848 221.171 227.056C220.787 227.248 220.475 227.512 220.235 227.848C219.995 228.184 219.819 228.584 219.707 229.048C219.595 229.512 219.539 230.008 219.539 230.536V234.664C219.539 235.224 219.587 235.736 219.683 236.2C219.779 236.664 219.947 237.064 220.187 237.4C220.427 237.736 220.739 238 221.123 238.192C221.507 238.368 221.987 238.456 222.563 238.456ZM235.242 232.6C235.242 232.056 235.442 231.584 235.842 231.184C236.242 230.784 236.714 230.584 237.258 230.584C237.802 230.584 238.274 230.784 238.674 231.184C239.074 231.584 239.274 232.056 239.274 232.6C239.274 233.144 239.074 233.616 238.674 234.016C238.274 234.416 237.802 234.616 237.258 234.616C236.714 234.616 236.242 234.416 235.842 234.016C235.442 233.616 235.242 233.144 235.242 232.6ZM231.066 230.728C231.066 228.552 231.61 226.864 232.698 225.664C233.802 224.464 235.322 223.864 237.258 223.864C239.194 223.864 240.706 224.464 241.794 225.664C242.898 226.864 243.45 228.552 243.45 230.728V234.472C243.45 236.712 242.898 238.416 241.794 239.584C240.706 240.752 239.194 241.336 237.258 241.336C235.322 241.336 233.802 240.752 232.698 239.584C231.61 238.416 231.066 236.712 231.066 234.472V230.728ZM237.258 238.456C237.834 238.456 238.314 238.368 238.698 238.192C239.082 238 239.394 237.736 239.634 237.4C239.874 237.064 240.042 236.664 240.138 236.2C240.234 235.736 240.282 235.224 240.282 234.664V230.536C240.282 230.008 240.226 229.512 240.114 229.048C240.002 228.584 239.826 228.184 239.586 227.848C239.346 227.512 239.034 227.248 238.65 227.056C238.266 226.848 237.802 226.744 237.258 226.744C236.714 226.744 236.25 226.848 235.866 227.056C235.482 227.248 235.17 227.512 234.93 227.848C234.69 228.184 234.514 228.584 234.402 229.048C234.29 229.512 234.234 230.008 234.234 230.536V234.664C234.234 235.224 234.282 235.736 234.378 236.2C234.474 236.664 234.642 237.064 234.882 237.4C235.122 237.736 235.434 238 235.818 238.192C236.202 238.368 236.682 238.456 237.258 238.456Z" fill="#F7C367"/>
<path d="M177.469 53.976V41.784H177.037L175.453 47.544H172.429V47.256L174.445 40.2H180.637V53.976H184.813V57H172.717V53.976H177.469ZM221.555 53.976V41.784H221.123L219.539 47.544H216.515V47.256L218.531 40.2H224.723V53.976H228.899V57H216.803V53.976H221.555ZM220.547 140.6C220.547 140.056 220.747 139.584 221.147 139.184C221.547 138.784 222.019 138.584 222.563 138.584C223.107 138.584 223.579 138.784 223.979 139.184C224.379 139.584 224.579 140.056 224.579 140.6C224.579 141.144 224.379 141.616 223.979 142.016C223.579 142.416 223.107 142.616 222.563 142.616C222.019 142.616 221.547 142.416 221.147 142.016C220.747 141.616 220.547 141.144 220.547 140.6ZM216.371 138.728C216.371 136.552 216.915 134.864 218.003 133.664C219.107 132.464 220.627 131.864 222.563 131.864C224.499 131.864 226.011 132.464 227.099 133.664C228.203 134.864 228.755 136.552 228.755 138.728V142.472C228.755 144.712 228.203 146.416 227.099 147.584C226.011 148.752 224.499 149.336 222.563 149.336C220.627 149.336 219.107 148.752 218.003 147.584C216.915 146.416 216.371 144.712 216.371 142.472V138.728ZM222.563 146.456C223.139 146.456 223.619 146.368 224.003 146.192C224.387 146 224.699 145.736 224.939 145.4C225.179 145.064 225.347 144.664 225.443 144.2C225.539 143.736 225.587 143.224 225.587 142.664V138.536C225.587 138.008 225.531 137.512 225.419 137.048C225.307 136.584 225.131 136.184 224.891 135.848C224.651 135.512 224.339 135.248 223.955 135.056C223.571 134.848 223.107 134.744 222.563 134.744C222.019 134.744 221.555 134.848 221.171 135.056C220.787 135.248 220.475 135.512 220.235 135.848C219.995 136.184 219.819 136.584 219.707 137.048C219.595 137.512 219.539 138.008 219.539 138.536V142.664C219.539 143.224 219.587 143.736 219.683 144.2C219.779 144.664 219.947 145.064 220.187 145.4C220.427 145.736 220.739 146 221.123 146.192C221.507 146.368 221.987 146.456 222.563 146.456ZM250.945 283.976V271.784H250.513L248.929 277.544H245.905V277.256L247.921 270.2H254.113V283.976H258.289V287H246.193V283.976H250.945Z" fill="#EED9B4"/>
<path d="M19.5685 61.211C19.5685 61.211 19.5648 61.4928 19.5573 62.0565C19.5499 62.6201 19.5503 63.316 19.5586 64.1441C19.5668 64.9722 19.5878 65.7464 19.6214 66.4668C19.6551 67.1872 19.7928 67.9942 20.0347 68.8878C20.2765 69.7813 20.5393 70.5836 20.8229 71.2948C21.1065 72.0059 21.4232 72.7587 21.7732 73.5532C22.1231 74.3476 22.4378 75.0609 22.7172 75.693C22.9967 76.3251 23.2713 76.9424 23.5411 77.5448C23.8109 78.1473 24.0987 78.7992 24.4046 79.5005C24.7104 80.2018 24.9639 80.793 25.1651 81.2741C25.3662 81.7552 25.4667 81.9958 25.4666 81.9959C25.7139 82.565 25.7253 83.2089 25.4984 83.7864C25.2715 84.3639 24.8248 84.8278 24.2563 85.0764C23.6878 85.3251 23.0439 85.338 22.4659 85.1126C21.8878 84.8871 21.4228 84.4415 21.1728 83.8737C21.1727 83.8737 20.9748 83.435 20.5789 82.5574C20.1831 81.6798 19.8588 80.9454 19.6061 80.3542C19.3533 79.763 19.1045 79.1644 18.8598 78.5585C18.6151 77.9526 18.3424 77.2911 18.0417 76.5742C17.7411 75.8573 17.4003 75.0876 17.0195 74.265C16.6387 73.4425 16.3033 72.6405 16.0136 71.859C15.7238 71.0776 15.5019 70.2129 15.3479 69.2649C15.194 68.3169 15.1071 67.4335 15.0874 66.6146C15.0677 65.7958 15.0621 64.9723 15.0704 64.1441C15.0788 63.3158 15.0792 62.62 15.0717 62.0565C15.0641 61.4929 15.0604 61.2111 15.0606 61.211C15.0606 60.6132 15.298 60.0399 15.7207 59.6172C16.1434 59.1945 16.7167 58.957 17.3145 58.957C17.9123 58.957 18.4856 59.1945 18.9083 59.6172C19.331 60.0399 19.5685 60.6132 19.5685 61.211Z" fill="#E0CBA5"/>
<path d="M19.5543 76.801C19.5543 76.801 19.3479 77.0656 18.9351 77.5948C18.5223 78.1241 17.97 78.847 17.2782 79.7635C16.5863 80.6801 15.9294 81.5768 15.3074 82.4537C14.6854 83.3306 14.0567 84.2377 13.4214 85.1751C12.786 86.1124 12.1272 87.1386 11.4449 88.2535C10.7626 89.3684 10.2605 90.2143 9.93855 90.7911C9.61662 91.368 9.28577 91.9962 8.94599 92.6758C8.60621 93.3555 8.29084 94.0365 7.99989 94.7188C7.70893 95.4012 7.38958 96.1623 7.04184 97.0023C6.69409 97.8422 6.3459 98.7333 5.99726 99.6758C5.64862 100.618 5.36677 101.64 5.15169 102.743C4.93662 103.845 4.69411 105.067 4.42417 106.41C4.15422 107.752 3.94598 109.064 3.79944 110.345C3.6529 111.626 3.53692 112.805 3.45149 113.882C3.36606 114.96 3.31961 115.874 3.31212 116.626C3.30464 117.378 3.27992 118.205 3.23796 119.107C3.196 120.01 3.17509 120.461 3.17523 120.461C3.15611 120.835 2.98922 121.186 2.71128 121.437C2.43335 121.688 2.06713 121.818 1.69319 121.799C1.31925 121.78 0.968226 121.613 0.717334 121.335C0.466442 121.057 0.336237 120.691 0.35536 120.317C0.355497 120.317 0.380769 119.866 0.431172 118.964C0.481576 118.062 0.541695 117.231 0.611533 116.47C0.68137 115.71 0.744718 114.774 0.801577 113.664C0.858436 112.554 0.944309 111.32 1.05919 109.962C1.17408 108.604 1.33693 107.255 1.54775 105.916C1.75856 104.577 1.95064 103.278 2.12396 102.018C2.29728 100.758 2.51788 99.6138 2.78577 98.5859C3.05365 97.5579 3.33262 96.5911 3.62268 95.6854C3.91275 94.7797 4.20236 93.9501 4.49153 93.1965C4.7807 92.4429 5.0926 91.6791 5.42723 90.9051C5.76186 90.131 6.09189 89.4359 6.41732 88.8197C6.74274 88.2036 7.07765 87.5856 7.42203 86.9657C7.76641 86.3459 8.1145 85.7373 8.4663 85.1399C8.81809 84.5424 9.32302 83.7541 9.98109 82.775C10.6392 81.7958 11.301 80.8425 11.9665 79.9149C12.6321 78.9874 13.2971 78.0819 13.9617 77.1985C14.6263 76.315 15.1546 75.6008 15.5466 75.0559C15.9385 74.5109 16.1345 74.2385 16.1345 74.2386C16.4753 73.7879 16.9808 73.4905 17.5403 73.4116C18.0998 73.3326 18.6678 73.4785 19.12 73.8174C19.5722 74.1562 19.8718 74.6603 19.9532 75.2195C20.0346 75.7787 19.8911 76.3473 19.5543 76.801Z" fill="#E0CBA5"/>
<path d="M4.52362 121.805C4.52362 121.805 4.51469 122.141 4.49684 122.812C4.47899 123.484 4.4725 124.307 4.47737 125.282C4.48225 126.256 4.49186 127.122 4.50621 127.879C4.52057 128.637 4.53121 129.445 4.53815 130.305C4.54508 131.165 4.55212 132.006 4.55926 132.829C4.5664 133.651 4.57344 134.46 4.58038 135.255C4.58731 136.049 4.59329 136.848 4.5983 137.651C4.60331 138.455 4.61742 139.289 4.64064 140.154C4.66385 141.018 4.75645 141.816 4.91844 142.546C5.08043 143.276 5.26797 144.036 5.48105 144.826C5.69414 145.616 5.90722 146.446 6.1203 147.317C6.33339 148.187 6.55739 149.048 6.79231 149.899C7.02723 150.749 7.25951 151.529 7.48914 152.238C7.71877 152.947 7.95411 153.671 8.19514 154.41C8.43617 155.148 8.69392 155.852 8.9684 156.521C9.24287 157.19 9.53929 157.891 9.85764 158.625C10.176 159.359 10.5127 160.081 10.8678 160.793C11.2229 161.505 11.5989 162.313 11.9959 163.217C12.3929 164.12 12.8063 164.995 13.236 165.843C13.6657 166.69 14.0953 167.569 14.5247 168.48C14.9541 169.39 15.3978 170.301 15.8557 171.213C16.3137 172.125 16.7236 172.904 17.0855 173.551C17.4474 174.197 17.8177 174.897 18.1963 175.65C18.575 176.404 18.9455 177.105 19.3079 177.755C19.6702 178.405 20.0359 179.067 20.4049 179.741C20.7738 180.414 21.2017 181.144 21.6885 181.931C22.1753 182.717 22.6466 183.47 23.1025 184.191C23.5583 184.911 23.9931 185.705 24.4068 186.57C24.8206 187.436 25.238 188.28 25.6592 189.102C26.0803 189.923 26.4993 190.687 26.9162 191.393C27.3331 192.099 27.7446 192.737 28.1507 193.308C28.5569 193.879 29.0116 194.415 29.5149 194.916C30.0183 195.417 30.6035 196.022 31.2705 196.731C31.9375 197.44 32.2709 197.794 32.2708 197.794C32.4301 197.95 32.5573 198.135 32.6451 198.339C32.7329 198.543 32.7796 198.763 32.7825 198.985C32.7855 199.207 32.7446 199.428 32.6623 199.634C32.5799 199.841 32.4577 200.029 32.3026 200.188C32.1475 200.348 31.9625 200.475 31.7582 200.563C31.554 200.651 31.3344 200.697 31.1121 200.7C30.8898 200.703 30.6691 200.662 30.4626 200.58C30.2561 200.498 30.0678 200.375 29.9085 200.22C29.9085 200.22 29.5453 199.896 28.8191 199.248C28.093 198.6 27.3976 197.958 26.7331 197.322C26.0686 196.686 25.505 196.055 25.0424 195.427C24.5797 194.8 24.1064 194.132 23.6224 193.423C23.1384 192.715 22.6247 191.964 22.0811 191.17C21.5375 190.376 21.0288 189.621 20.5551 188.905C20.0815 188.188 19.5953 187.447 19.0968 186.68C18.5982 185.913 18.0891 185.082 17.5692 184.188C17.0494 183.294 16.6259 182.536 16.2989 181.913C15.9718 181.291 15.6137 180.618 15.2245 179.894C14.8354 179.17 14.4919 178.489 14.1941 177.851C13.8962 177.214 13.5366 176.502 13.1151 175.716C12.6936 174.93 12.2679 174.116 11.838 173.275C11.4081 172.433 10.9477 171.523 10.4567 170.544C9.96573 169.565 9.49136 168.637 9.0336 167.761C8.57585 166.885 8.16503 166.043 7.80114 165.236C7.43726 164.428 7.03777 163.587 6.60268 162.715C6.16758 161.842 5.80051 161.056 5.50145 160.356C5.20239 159.656 4.89327 158.902 4.57409 158.093C4.25492 157.284 4.00509 156.573 3.82463 155.96C3.64416 155.348 3.42765 154.641 3.17508 153.839C2.92251 153.038 2.65703 152.152 2.37864 151.183C2.10025 150.213 1.85146 149.287 1.63227 148.406C1.41307 147.525 1.19381 146.666 0.974475 145.829C0.755143 144.991 0.551913 144.1 0.364787 143.153C0.177661 142.207 0.0689562 141.255 0.0386727 140.295C0.0083892 139.336 -0.0041086 138.455 0.001179 137.651C0.0064666 136.848 0.0124409 136.049 0.0191019 135.255C0.0257629 134.46 0.0328016 133.651 0.0402179 132.829C0.0476343 132.006 0.0546729 131.165 0.0613339 130.305C0.0679949 129.445 0.0786387 128.636 0.0932654 127.879C0.107892 127.122 0.117506 126.256 0.122107 125.282C0.126708 124.307 0.120219 123.484 0.102639 122.812C0.0850596 122.141 0.0761324 121.805 0.0758577 121.805C0.0758577 121.215 0.310159 120.649 0.727218 120.232C1.14428 119.815 1.70993 119.581 2.29974 119.581C2.88955 119.581 3.4552 119.815 3.87226 120.232C4.28932 120.649 4.52362 121.215 4.52362 121.805Z" fill="#E0CBA5"/>
<path d="M27.2454 198.659C27.2454 198.659 27.1846 198.98 27.0629 199.623C26.9412 200.266 26.8172 201.103 26.691 202.136C26.5648 203.168 26.4887 204.123 26.4626 204.998C26.4365 205.874 26.4222 206.757 26.4196 207.649C26.4171 208.541 26.401 209.497 26.3713 210.518C26.3416 211.54 26.2703 212.594 26.1573 213.681C26.0442 214.769 25.9154 215.828 25.7707 216.86C25.626 217.891 25.4454 218.96 25.2288 220.066C25.0122 221.172 24.8296 222.06 24.6811 222.731C24.5326 223.402 24.3891 224.231 24.2506 225.217C24.1122 226.203 24.0073 227.127 23.9361 227.99C23.8648 228.853 23.8256 229.623 23.8184 230.3C23.8113 230.978 23.7518 231.698 23.6399 232.462C23.5281 233.225 23.4167 234 23.306 234.785C23.1952 235.571 23.1017 236.297 23.0255 236.964C22.9493 237.631 22.8703 238.378 22.7886 239.207C22.7069 240.036 22.5873 240.922 22.43 241.863C22.2727 242.804 22.1251 243.697 21.9871 244.541C21.8491 245.384 21.6712 246.248 21.4533 247.133C21.2354 248.017 20.9038 248.988 20.4583 250.045C20.0128 251.103 19.4961 252.142 18.9081 253.16C18.32 254.179 18.026 254.688 18.0258 254.689C17.7346 255.206 17.2495 255.587 16.6775 255.747C16.1055 255.907 15.4932 255.834 14.9755 255.542C14.4578 255.251 14.077 254.766 13.9169 254.194C13.7568 253.622 13.8305 253.01 14.1217 252.492C14.1216 252.492 14.2639 252.227 14.5486 251.696C14.8333 251.165 15.1775 250.491 15.5812 249.675C15.9849 248.86 16.3089 248.067 16.5533 247.298C16.7976 246.529 17.0033 245.741 17.1703 244.935C17.3373 244.129 17.498 243.288 17.6525 242.413C17.807 241.538 17.9426 240.709 18.0593 239.926C18.176 239.143 18.2676 238.335 18.3342 237.503C18.4008 236.671 18.4961 235.902 18.6202 235.195C18.7442 234.488 18.8992 233.643 19.0851 232.659C19.2711 231.675 19.3857 230.814 19.4289 230.077C19.4721 229.34 19.5439 228.512 19.6444 227.595C19.745 226.677 19.8765 225.667 20.039 224.564C20.2014 223.461 20.3391 222.587 20.452 221.944C20.5649 221.3 20.7198 220.456 20.9168 219.413C21.1137 218.37 21.2842 217.305 21.4283 216.219C21.5724 215.133 21.6909 214.125 21.7839 213.195C21.8768 212.264 21.9387 211.323 21.9695 210.371C22.0002 209.419 22.0257 208.483 22.0459 207.561C22.0661 206.639 22.1023 205.699 22.1546 204.741C22.2068 203.783 22.3016 202.733 22.4388 201.591C22.576 200.449 22.6919 199.554 22.7864 198.907C22.881 198.259 22.9282 197.935 22.928 197.936C23.0239 197.363 23.3433 196.852 23.816 196.515C24.2886 196.178 24.8758 196.043 25.4483 196.138C26.0208 196.234 26.5318 196.554 26.8688 197.026C27.2058 197.499 27.3413 198.086 27.2454 198.659Z" fill="#E0CBA5"/>
<path d="M104.829 243.039C104.829 243.039 104.587 243.027 104.104 243.003C103.62 242.979 103.011 242.964 102.277 242.957C101.542 242.951 100.787 242.949 100.011 242.953C99.2344 242.957 98.4465 242.96 97.6469 242.964C96.8474 242.967 96.1263 242.96 95.4835 242.943C94.8408 242.926 94.1401 242.902 93.3815 242.872C92.6229 242.842 91.8463 242.811 91.0517 242.781C90.2571 242.75 89.5161 242.73 88.8285 242.72C88.1409 242.711 87.4707 242.704 86.8181 242.7C86.1655 242.696 85.2718 242.699 84.1372 242.708C83.0026 242.717 81.8304 242.774 80.6207 242.879C79.411 242.984 78.4348 243.071 77.692 243.141C76.9491 243.211 76.2221 243.288 75.5109 243.372C74.7997 243.457 74.114 243.549 73.4537 243.65C72.7934 243.751 72.0576 243.849 71.2461 243.944C70.4346 244.039 69.6525 244.159 68.8996 244.304C68.1468 244.449 67.3955 244.623 66.6457 244.825C65.8959 245.027 65.1601 245.239 64.4385 245.461C63.7168 245.682 63.0137 245.899 62.3292 246.111C61.6447 246.323 60.9807 246.548 60.3372 246.787C59.6937 247.026 59.0517 247.267 58.4111 247.512C57.7706 247.756 56.8693 248.149 55.7072 248.691C54.5452 249.233 53.659 249.647 53.0485 249.933C52.438 250.219 51.6784 250.624 50.7696 251.149C49.8608 251.674 48.732 252.289 47.3833 252.994C46.0345 253.699 44.8563 254.315 43.8485 254.844C42.8407 255.372 42.0169 255.776 41.3771 256.055C40.7373 256.334 39.9218 256.643 38.9306 256.982C37.9394 257.321 36.9277 257.693 35.8955 258.097C34.8634 258.502 33.8528 258.928 32.8638 259.377C31.8748 259.826 30.7918 260.225 29.6147 260.574C28.4376 260.923 27.1897 261.295 25.871 261.69C24.5522 262.084 23.8929 262.282 23.8931 262.282C23.555 262.388 23.1886 262.356 22.8745 262.192C22.5603 262.028 22.3241 261.746 22.2178 261.408C22.1115 261.07 22.1438 260.704 22.3077 260.389C22.4715 260.075 22.7535 259.839 23.0915 259.733C23.0916 259.733 23.7452 259.517 25.0522 259.086C26.3592 258.655 27.5246 258.268 28.5485 257.925C29.5724 257.581 30.5824 257.145 31.5787 256.614C32.575 256.084 33.5844 255.568 34.607 255.065C35.6297 254.562 36.5986 254.09 37.514 253.647C38.4293 253.205 39.194 252.848 39.8082 252.578C40.4224 252.307 41.2214 251.944 42.2052 251.487C43.1891 251.03 44.2973 250.446 45.5298 249.734C46.7624 249.022 47.9115 248.389 48.9772 247.834C50.0429 247.279 50.8889 246.858 51.5153 246.572C52.1418 246.285 52.7648 246.004 53.3845 245.73C54.0042 245.455 54.6268 245.182 55.2523 244.908C55.8778 244.635 56.5165 244.38 57.1683 244.143C57.8201 243.906 58.5002 243.66 59.2085 243.405C59.9168 243.151 60.6096 242.923 61.2867 242.722C61.9639 242.522 62.6756 242.303 63.4218 242.066C64.1681 241.83 64.9537 241.586 65.7789 241.337C66.604 241.087 67.432 240.867 68.2628 240.677C69.0935 240.487 69.9021 240.327 70.6884 240.197C71.4748 240.068 72.2124 239.948 72.9013 239.837C73.5902 239.727 74.3036 239.618 75.0414 239.509C75.7793 239.4 76.4989 239.301 77.2002 239.212C77.9015 239.123 78.6207 239.025 79.3579 238.917C80.095 238.809 80.7922 238.74 81.4496 238.711C82.107 238.682 83.0029 238.672 84.1373 238.681C85.2717 238.69 86.1654 238.693 86.8184 238.689C87.4714 238.686 88.1415 238.679 88.8289 238.669C89.5162 238.66 90.2575 238.64 91.0527 238.609C91.8479 238.579 92.6247 238.549 93.3833 238.519C94.1419 238.489 94.8435 238.466 95.4881 238.45C96.1326 238.433 96.8582 238.429 97.6649 238.436C98.4715 238.443 99.2743 238.456 100.073 238.473C100.872 238.49 101.662 238.517 102.444 238.555C103.226 238.593 103.859 238.627 104.343 238.656C104.827 238.686 105.068 238.7 105.068 238.7C105.642 238.734 106.179 238.994 106.562 239.423C106.945 239.851 107.142 240.415 107.11 240.989C107.079 241.563 106.821 242.101 106.394 242.485C105.966 242.869 105.404 243.069 104.829 243.039Z" fill="#E0CBA5"/>
<path d="M18.6022 252.839C18.6022 252.839 18.4912 253.066 18.2692 253.519C18.0472 253.973 17.7762 254.534 17.4562 255.201C17.1362 255.869 16.8284 256.519 16.5329 257.152C16.2374 257.785 15.8705 258.462 15.4321 259.183C14.9937 259.904 14.5945 260.552 14.2346 261.128C13.8746 261.704 13.7837 262.151 13.962 262.468C14.1403 262.786 14.2294 262.945 14.2294 262.945C14.4103 263.603 14.3229 264.306 13.9864 264.9C13.6499 265.494 13.0916 265.93 12.434 266.113C11.7763 266.297 11.0729 266.212 10.4778 265.877C9.88263 265.543 9.44434 264.986 9.2589 264.329C9.2589 264.329 9.18069 263.949 9.02426 263.189C8.86783 262.428 8.84873 261.706 8.96698 261.021C9.08523 260.336 9.38907 259.591 9.87848 258.786C10.3679 257.982 10.803 257.307 11.1838 256.763C11.5645 256.219 11.9116 255.643 12.225 255.034C12.5384 254.426 12.8531 253.799 13.1691 253.154C13.485 252.508 13.7465 251.955 13.9536 251.495C14.1606 251.034 14.2641 250.803 14.264 250.803C14.5364 250.232 15.0237 249.792 15.6196 249.579C16.2155 249.365 16.8716 249.397 17.4446 249.665C18.0176 249.934 18.4609 250.419 18.6778 251.013C18.8947 251.608 18.8675 252.264 18.6022 252.839ZM12.0552 261.076C12.0552 261.076 12.2472 261.098 12.6312 261.143C13.0152 261.188 13.5257 261.152 14.1628 261.037C14.7998 260.922 15.671 260.628 16.7762 260.153C17.8815 259.679 18.813 259.344 19.5709 259.148C20.3287 258.952 21.2191 258.774 22.2421 258.615C23.2651 258.455 24.5519 258.279 26.1026 258.085C27.6533 257.891 29.3245 257.667 31.1162 257.414C32.9079 257.161 33.8038 257.035 33.804 257.035C34.2489 256.957 34.7066 257.058 35.0765 257.318C35.4463 257.577 35.6979 257.973 35.776 258.418C35.8541 258.863 35.7523 259.32 35.4929 259.69C35.2336 260.06 34.8379 260.312 34.393 260.39C34.3932 260.39 33.5078 260.576 31.7367 260.949C29.9656 261.321 28.3623 261.672 26.9268 262.003C25.4912 262.333 24.0502 262.741 22.6036 263.226C21.1571 263.712 19.9502 264.197 18.9828 264.682C18.0154 265.167 17.1718 265.523 16.4518 265.751C15.7317 265.979 14.9721 266.143 14.1729 266.242C13.3736 266.341 12.7171 266.358 12.2033 266.294C11.6895 266.23 11.4328 266.198 11.4331 266.198C10.7566 266.112 10.1414 265.762 9.72221 265.224C9.30299 264.686 9.11381 264.004 9.19603 263.327C9.27825 262.65 9.62517 262.033 10.161 261.611C10.6967 261.189 11.3778 260.997 12.0552 261.076Z" fill="#E0CBA5"/>
<path d="M102.884 238.314C102.884 238.314 103.182 238.319 103.777 238.327C104.372 238.335 105.1 238.334 105.962 238.324C106.824 238.314 107.723 238.368 108.659 238.484C109.595 238.601 110.53 238.827 111.465 239.161C112.399 239.495 113.43 239.909 114.555 240.404C115.681 240.899 116.554 241.304 117.175 241.619C117.796 241.935 118.732 242.443 119.982 243.145C121.233 243.846 122.178 244.389 122.817 244.772C123.457 245.156 124.089 245.552 124.715 245.961C125.34 246.369 126.161 246.769 127.176 247.16C128.192 247.551 129.052 247.85 129.756 248.057C130.46 248.264 130.812 248.368 130.812 248.368C131.305 248.506 131.724 248.833 131.975 249.279C132.227 249.725 132.291 250.253 132.154 250.746C132.016 251.239 131.688 251.658 131.243 251.909C130.797 252.161 130.269 252.225 129.776 252.088C129.776 252.088 129.421 251.994 128.711 251.808C128.001 251.622 127.291 251.421 126.582 251.208C125.873 250.994 125.191 250.721 124.536 250.389C123.882 250.056 123.259 249.71 122.669 249.348C122.078 248.987 121.478 248.638 120.871 248.303C120.264 247.967 119.341 247.494 118.102 246.884C116.864 246.273 115.678 245.723 114.545 245.232C113.411 244.742 112.364 244.313 111.404 243.947C110.444 243.58 109.512 243.288 108.609 243.069C107.706 242.85 106.823 242.735 105.962 242.725C105.1 242.715 104.372 242.715 103.777 242.723C103.182 242.731 102.884 242.735 102.884 242.735C102.298 242.735 101.736 242.502 101.321 242.088C100.907 241.673 100.674 241.111 100.674 240.525C100.674 239.939 100.907 239.376 101.321 238.962C101.736 238.547 102.298 238.314 102.884 238.314Z" fill="#E0CBA5"/>
<path d="M122.003 218.358C122.003 218.358 122.032 218.594 122.089 219.065C122.147 219.537 122.29 220.202 122.518 221.061C122.745 221.92 123.016 222.679 123.328 223.339C123.641 223.999 123.967 224.63 124.305 225.231C124.644 225.832 125.008 226.417 125.396 226.987C125.785 227.556 126.2 228.148 126.642 228.763C127.083 229.377 127.661 230.18 128.377 231.172C129.093 232.163 129.808 233.027 130.523 233.762C131.238 234.497 131.992 235.235 132.786 235.976C133.581 236.718 134.398 237.426 135.238 238.101C136.079 238.776 136.976 239.436 137.929 240.079C138.882 240.723 139.647 241.26 140.225 241.692C140.803 242.124 141.092 242.339 141.091 242.339C141.541 242.657 141.847 243.141 141.941 243.683C142.034 244.226 141.908 244.784 141.591 245.234C141.273 245.685 140.789 245.99 140.247 246.084C139.704 246.177 139.146 246.051 138.696 245.734C138.695 245.734 138.395 245.534 137.795 245.134C137.196 244.735 136.409 244.216 135.435 243.579C134.461 242.941 133.512 242.262 132.589 241.541C131.666 240.82 130.947 240.251 130.433 239.832C129.918 239.413 129.255 238.81 128.446 238.021C127.636 237.233 126.812 236.362 125.973 235.41C125.134 234.457 124.383 233.558 123.719 232.713C123.056 231.868 122.49 231.113 122.022 230.448C121.555 229.783 121.129 229.122 120.744 228.465C120.36 227.809 119.931 227.005 119.457 226.053C118.983 225.101 118.648 224.32 118.451 223.709C118.254 223.099 118.068 222.386 117.893 221.57C117.718 220.755 117.6 220.111 117.539 219.64C117.478 219.169 117.447 218.933 117.447 218.933C117.375 218.331 117.544 217.725 117.917 217.247C118.29 216.769 118.838 216.458 119.439 216.382C120.041 216.306 120.648 216.472 121.129 216.842C121.609 217.212 121.923 217.757 122.003 218.358Z" fill="#E0CBA5"/>
<path d="M128.703 247.315C128.703 247.315 128.999 247.369 129.592 247.477C130.185 247.586 130.913 247.701 131.777 247.824C132.641 247.947 133.486 248.078 134.312 248.217C135.138 248.357 135.932 248.427 136.694 248.427C137.456 248.428 137.723 248.122 137.495 247.509C137.266 246.896 137.156 246.238 137.164 245.534C137.173 244.83 137.1 244.287 136.947 243.902C136.794 243.518 136.717 243.326 136.717 243.326C136.523 242.69 136.589 242.003 136.902 241.416C137.214 240.829 137.747 240.39 138.383 240.195C139.019 240.001 139.706 240.067 140.293 240.38C140.88 240.692 141.319 241.225 141.514 241.861C141.514 241.861 141.627 242.292 141.855 243.153C142.082 244.015 142.179 244.88 142.146 245.75C142.113 246.62 142.019 247.453 141.864 248.248C141.71 249.044 141.448 249.845 141.079 250.651C140.71 251.457 140 252.089 138.95 252.548C137.899 253.006 137.001 253.209 136.255 253.157C135.509 253.104 134.704 252.987 133.84 252.806C132.977 252.625 132.082 252.469 131.158 252.337C130.233 252.206 129.472 252.1 128.875 252.021C128.278 251.941 127.979 251.901 127.979 251.901C127.373 251.803 126.831 251.468 126.47 250.971C126.11 250.474 125.962 249.854 126.058 249.248C126.153 248.641 126.486 248.097 126.981 247.735C127.477 247.373 128.096 247.222 128.703 247.315Z" fill="#E0CBA5"/>
<path d="M75.8268 107.259C75.8268 107.259 75.998 107.432 76.3403 107.779C76.6826 108.125 77.1322 108.589 77.6889 109.17C78.2457 109.751 78.785 110.352 79.3067 110.975C79.8285 111.597 80.229 112.096 80.5084 112.47C80.7877 112.844 80.9275 113.031 80.9275 113.031C81.3061 113.556 81.4606 114.209 81.3572 114.848C81.2537 115.487 80.9008 116.059 80.3759 116.437C79.8511 116.816 79.1974 116.97 78.5585 116.867C77.9197 116.763 77.3482 116.41 76.9696 115.886C76.9697 115.885 76.6468 115.435 76.001 114.534C75.3551 113.632 74.7957 112.908 74.3226 112.36C73.8496 111.813 73.4397 111.368 73.0932 111.026C72.7466 110.684 72.5733 110.512 72.5733 110.512C72.1457 110.08 71.9066 109.496 71.9082 108.888C71.9099 108.28 72.1521 107.698 72.582 107.268C73.012 106.838 73.5946 106.595 74.2026 106.594C74.8106 106.592 75.3946 106.831 75.8268 107.259Z" fill="#E0CBA5"/>
<path d="M81.0149 112.092C81.0149 112.092 81.2184 112.092 81.6255 112.092C82.0326 112.092 82.5676 112.09 83.2306 112.084C83.8936 112.078 84.6173 112.069 85.4018 112.056C86.1862 112.044 86.9147 112.032 87.5874 112.021C88.2601 112.009 89.0697 112.075 90.0163 112.218C90.9628 112.361 91.8214 112.543 92.5918 112.764C93.3623 112.986 94.147 113.276 94.9459 113.635C95.7448 113.993 96.4687 114.444 97.1176 114.987C97.7664 115.53 98.4313 116.153 99.1121 116.859C99.7929 117.564 100.418 118.317 100.989 119.12C101.559 119.922 101.928 120.67 102.096 121.362C102.263 122.055 102.36 122.766 102.385 123.496C102.411 124.226 102.394 125.02 102.336 125.879C102.277 126.737 102.094 127.466 101.787 128.065C101.48 128.663 101.016 129.24 100.394 129.795C99.7729 130.35 99.0805 130.813 98.3173 131.184C97.5541 131.555 96.7648 131.817 95.9495 131.97C95.1342 132.124 94.3322 132.3 93.5436 132.5C92.755 132.699 91.9806 132.969 91.2204 133.309C90.4602 133.649 89.8172 134.04 89.2912 134.484C88.7653 134.928 88.3462 135.572 88.0341 136.416C87.7219 137.26 87.4784 138.262 87.3035 139.423C87.1287 140.584 87.0093 141.533 86.9454 142.271C86.8815 143.008 86.8244 143.766 86.7741 144.545C86.7238 145.323 86.7228 146.15 86.7709 147.025C86.819 147.901 86.875 148.922 86.9388 150.089C87.0026 151.256 87.1198 152.4 87.2903 153.522C87.4608 154.643 87.6627 155.899 87.896 157.289C88.1294 158.679 88.246 159.374 88.2459 159.374C88.3208 159.76 88.2396 160.159 88.0201 160.484C87.8006 160.809 87.4609 161.034 87.0757 161.109C86.6905 161.184 86.2913 161.103 85.966 160.883C85.6407 160.664 85.4158 160.324 85.341 159.939C85.3409 159.939 85.1888 159.251 84.8847 157.874C84.5805 156.498 84.2884 155.211 84.0083 154.014C83.7282 152.816 83.4938 151.648 83.305 150.51C83.1162 149.371 82.9289 148.274 82.7429 147.22C82.5569 146.165 82.4539 145.234 82.4337 144.427C82.4135 143.62 82.3991 142.819 82.3906 142.024C82.3821 141.23 82.3894 140.442 82.4126 139.662C82.4357 138.881 82.4927 138.123 82.5836 137.387C82.6746 136.652 82.8707 135.831 83.1721 134.926C83.4735 134.021 83.8922 133.135 84.4283 132.267C84.9643 131.399 85.6156 130.689 86.3821 130.135C87.1486 129.581 87.9312 129.117 88.7299 128.741C89.5286 128.366 90.3989 128.032 91.3408 127.741C92.2828 127.449 93.2575 127.187 94.2649 126.954C95.2724 126.722 96.0056 126.381 96.4644 125.934C96.9233 125.486 97.1525 124.919 97.1522 124.233C97.1518 123.547 97.0396 122.901 96.8156 122.294C96.5915 121.688 96.1708 121.075 95.5534 120.458C94.9361 119.84 94.3835 119.305 93.8956 118.851C93.4077 118.398 92.7833 118.037 92.0223 117.768C91.2614 117.5 90.5003 117.29 89.739 117.139C88.9777 116.987 88.2605 116.906 87.5874 116.895C86.9143 116.884 86.1858 116.872 85.4018 116.86C84.6178 116.847 83.894 116.838 83.2306 116.832C82.5672 116.827 82.0322 116.824 81.6255 116.824C81.2188 116.824 81.0153 116.824 81.0149 116.824C80.3873 116.824 79.7853 116.575 79.3416 116.131C78.8978 115.688 78.6484 115.086 78.6484 114.458C78.6484 113.83 78.8978 113.228 79.3416 112.785C79.7853 112.341 80.3873 112.092 81.0149 112.092Z" fill="#E0CBA5"/>
<path d="M53.7268 128.698C53.7268 128.698 53.4316 128.565 52.8412 128.301C52.2507 128.036 51.5443 127.775 50.7217 127.517C49.8992 127.259 49.1692 127.098 48.5317 127.033C47.8943 126.968 47.1491 126.929 46.2961 126.916C45.4432 126.904 44.5853 126.921 43.7224 126.967C42.8596 127.014 41.8089 127.187 40.5704 127.487C39.3318 127.786 38.229 128.074 37.262 128.35C36.2949 128.625 35.239 128.983 34.0944 129.423C32.9498 129.863 31.7842 130.312 30.5976 130.769C29.411 131.227 28.2915 131.708 27.239 132.214C26.1866 132.719 25.0641 133.323 23.8715 134.024C22.6789 134.726 21.3558 135.51 19.9023 136.377C18.4487 137.245 17.7219 137.678 17.7219 137.678C17.4208 137.862 17.0593 137.918 16.7168 137.835C16.3743 137.752 16.0786 137.537 15.8947 137.236C15.7108 136.935 15.6537 136.574 15.7359 136.231C15.8181 135.888 16.0329 135.592 16.3332 135.408C16.3331 135.408 17.0502 134.958 18.4846 134.06C19.919 133.161 21.2502 132.322 22.4783 131.543C23.7064 130.764 24.8652 130.075 25.9546 129.477C27.0439 128.878 28.1578 128.311 29.2963 127.775C30.4347 127.239 31.5873 126.681 32.7542 126.101C33.9211 125.522 34.9913 125.01 35.9648 124.568C36.9383 124.125 37.851 123.745 38.703 123.426C39.555 123.108 40.2971 122.874 40.9292 122.724C41.5614 122.574 42.4141 122.465 43.4873 122.395C44.5605 122.326 45.5869 122.322 46.5666 122.382C47.5463 122.442 48.4841 122.543 49.38 122.683C50.2759 122.824 51.2119 123.055 52.1881 123.378C53.1643 123.7 53.9537 123.98 54.5562 124.216C55.1587 124.452 55.46 124.57 55.4602 124.57C56.0075 124.8 56.4412 125.238 56.6657 125.787C56.8902 126.337 56.8872 126.953 56.6573 127.501C56.4275 128.048 55.9896 128.482 55.44 128.706C54.8904 128.931 54.2742 128.928 53.7268 128.698Z" fill="#E0CBA5"/>
<path d="M52.5588 123.382C52.5588 123.382 52.7626 123.462 53.1701 123.622C53.5777 123.782 54.0925 124.036 54.7145 124.385C55.3365 124.734 55.8961 125.14 56.3933 125.604C56.8904 126.068 57.306 126.599 57.6398 127.199C57.9737 127.798 58.2605 128.524 58.5001 129.376C58.7398 130.227 58.8545 131.012 58.8443 131.73C58.834 132.448 58.6349 133.184 58.2467 133.938C57.8586 134.692 57.4212 135.285 56.9344 135.719C56.4476 136.153 55.8623 136.587 55.1787 137.022C54.4951 137.457 53.8476 137.816 53.2363 138.1C52.6249 138.384 51.8928 138.694 51.0401 139.031C50.1873 139.369 49.3758 139.657 48.6054 139.897C47.8349 140.138 46.9173 140.381 45.8523 140.627C44.7874 140.873 43.8237 141.089 42.9611 141.275C42.0985 141.461 41.2636 141.666 40.4564 141.891C39.6492 142.116 38.897 142.363 38.1998 142.633C37.5026 142.902 36.6244 143.366 35.5653 144.024C34.5062 144.683 33.6363 145.593 32.9556 146.753C32.2748 147.914 31.6906 149.18 31.2027 150.552C30.7149 151.924 30.471 152.61 30.471 152.61C30.3123 153.05 29.9863 153.41 29.5639 153.611C29.1416 153.812 28.657 153.838 28.2156 153.683C27.7742 153.529 27.4116 153.206 27.2067 152.786C27.0018 152.365 26.9712 151.881 27.1215 151.438C27.1215 151.438 27.2505 151.048 27.5086 150.268C27.7666 149.487 28.0217 148.748 28.2739 148.049C28.526 147.35 28.8548 146.541 29.2601 145.621C29.6654 144.701 30.1761 143.842 30.7924 143.044C31.4086 142.246 32.0197 141.636 32.6256 141.213C33.2316 140.791 33.8775 140.379 34.5635 139.977C35.2494 139.576 35.9764 139.198 36.7444 138.843C37.5124 138.488 38.3217 138.139 39.1721 137.793C40.0226 137.448 40.8465 137.132 41.6437 136.845C42.4408 136.557 43.3776 136.247 44.4539 135.914C45.5303 135.58 46.3828 135.309 47.0116 135.1C47.6403 134.892 48.3505 134.629 49.1422 134.311C49.9339 133.993 50.6478 133.676 51.2839 133.36C51.92 133.044 52.5194 132.73 53.0822 132.419C53.6449 132.107 53.8797 131.584 53.7864 130.848C53.6932 130.112 53.3838 129.501 52.8583 129.014C52.3329 128.528 51.8668 128.208 51.4602 128.054C51.0537 127.901 50.8504 127.824 50.8504 127.824C50.2633 127.596 49.7906 127.145 49.5358 126.569C49.281 125.993 49.2648 125.34 49.4909 124.752C49.717 124.164 50.1668 123.69 50.7419 123.433C51.3169 123.177 51.9703 123.158 52.5588 123.382Z" fill="#E0CBA5"/>
<path d="M79.2448 91.3799C79.2448 91.3799 79.3373 91.584 79.5225 91.9924C79.7076 92.4008 79.9342 92.915 80.2023 93.5351C80.4704 94.1552 80.7123 94.8807 80.928 95.7114C81.1437 96.5422 81.2745 97.2929 81.3203 97.9636C81.3662 98.6343 81.3696 99.3355 81.3305 100.067C81.2914 100.799 81.1756 101.473 80.9829 102.089C80.7902 102.705 80.5507 103.336 80.2644 103.98C79.9781 104.625 79.5916 105.298 79.1047 105.998C78.6178 106.698 78.0679 107.323 77.455 107.874C76.842 108.424 76.1836 108.896 75.4797 109.289C74.7759 109.682 74.0933 110.033 73.4322 110.34C72.771 110.648 72.0913 110.932 71.3931 111.193C70.6949 111.455 69.778 111.718 68.6425 111.983C67.5071 112.248 66.3229 112.592 65.0901 113.016C63.8573 113.44 63.2407 113.652 63.2403 113.652C62.6892 113.866 62.0757 113.852 61.5347 113.613C60.9938 113.375 60.5698 112.931 60.356 112.38C60.1422 111.829 60.156 111.215 60.3946 110.674C60.6331 110.133 61.0767 109.709 61.6279 109.496C61.6276 109.496 61.9678 109.346 62.6486 109.046C63.3294 108.746 63.986 108.464 64.6183 108.2C65.2507 107.936 66.08 107.653 67.1062 107.351C68.1324 107.05 69.0685 106.735 69.9144 106.406C70.7602 106.078 71.5983 105.683 72.4286 105.221C73.2589 104.76 73.9156 104.302 74.3988 103.849C74.882 103.396 75.2785 102.83 75.5884 102.152C75.8983 101.474 76.1231 100.796 76.2628 100.118C76.4024 99.4406 76.4514 98.7262 76.4096 97.9753C76.3677 97.2243 76.2074 96.4715 75.9285 95.7168C75.6496 94.9621 75.415 94.3818 75.2247 93.9759C75.0343 93.57 74.939 93.3671 74.9387 93.3672C74.6781 92.7967 74.6542 92.1461 74.8722 91.5579C75.0902 90.9697 75.5324 90.4919 76.102 90.229C76.6715 89.9661 77.322 89.9396 77.9111 90.1553C78.5001 90.371 78.9797 90.8113 79.2448 91.3799Z" fill="#E0CBA5"/>
<path d="M75.3258 90.3868C75.3258 90.3868 75.3544 90.1829 75.4115 89.7751C75.4686 89.3674 75.5294 88.7384 75.5938 87.8882C75.6582 87.038 75.6904 86.6129 75.6903 86.613C75.7393 86.0225 76.0208 85.4756 76.473 85.0927C76.9251 84.7098 77.5109 84.5222 78.1014 84.5711C78.6919 84.6201 79.2387 84.9016 79.6217 85.3538C80.0046 85.8059 80.1922 86.3917 80.1432 86.9822C80.1432 86.9822 80.1006 87.4583 80.0156 88.4102C79.9306 89.3622 79.854 90.0414 79.7859 90.4478C79.7178 90.8542 79.6837 91.0574 79.6837 91.0574C79.5938 91.6344 79.2787 92.1521 78.8074 92.497C78.3361 92.8419 77.7473 92.9857 77.1701 92.8969C76.5929 92.8081 76.0746 92.4939 75.7288 92.0233C75.383 91.5527 75.2381 90.9641 75.3258 90.3868Z" fill="#E0CBA5"/>
<path d="M54.758 60.1369C54.758 60.1369 54.6719 60.3903 54.4998 60.8969C54.3276 61.4036 54.1969 62.0024 54.1077 62.6933C54.0185 63.3843 53.9775 64.1034 53.9846 64.8508C53.9918 65.5981 53.9799 66.3432 53.9489 67.086C53.9179 67.8288 53.7753 68.6513 53.5211 69.5534C53.2669 70.4555 52.669 71.3515 51.7274 72.2414C50.7858 73.1313 50.0731 73.7165 49.5893 73.997C49.1055 74.2775 48.8636 74.4178 48.8636 74.4179C48.3146 74.7593 47.6524 74.8685 47.0227 74.7217C46.3931 74.5748 45.8476 74.1838 45.5062 73.6347C45.1648 73.0857 45.0555 72.4235 45.2024 71.7938C45.3493 71.1642 45.7403 70.6187 46.2893 70.2773C46.2893 70.2774 46.6129 70.0909 47.2602 69.718C47.9074 69.345 48.3579 68.8168 48.6117 68.1333C48.8655 67.4499 48.9992 66.7079 49.0127 65.9073C49.0262 65.1067 49.054 64.3133 49.096 63.5271C49.138 62.7408 49.2426 62.0091 49.4097 61.3321C49.5767 60.6551 49.7675 60.0237 49.9821 59.4381C50.1966 58.8524 50.3039 58.5596 50.3041 58.5597C50.5161 57.9729 50.9517 57.4938 51.5157 57.2269C52.0798 56.9601 52.7265 56.9272 53.3146 57.1355C53.9028 57.3438 54.3847 57.7763 54.6551 58.3386C54.9256 58.901 54.9625 59.5474 54.758 60.1369Z" fill="#E0CBA5"/>
<path d="M73.3471 85.8795C73.3471 85.8795 73.1483 85.6551 72.7506 85.2065C72.353 84.7578 71.9063 84.2953 71.4107 83.819C70.9152 83.3427 70.4345 82.8742 69.9689 82.4136C69.5032 81.9529 68.9889 81.3789 68.4258 80.6916C67.8627 80.0043 67.3162 79.1912 66.7864 78.2522C66.2566 77.3132 65.8146 76.4501 65.4602 75.6629C65.1059 74.8758 64.773 74.11 64.4616 73.3657C64.1502 72.6214 63.8155 71.8883 63.4575 71.1663C63.0995 70.4444 62.5197 69.5343 61.7181 68.4361C60.9164 67.3378 60.2499 66.4661 59.7184 65.8208C59.187 65.1755 58.6037 64.5907 57.9685 64.0664C57.3333 63.5421 56.5815 62.9187 55.7133 62.1962C54.845 61.4737 54.4108 61.1125 54.4108 61.1124C54.0536 60.8453 53.8172 60.4472 53.7535 60.0057C53.6899 59.5643 53.8042 59.1156 54.0714 58.7584C54.3385 58.4013 54.7366 58.1649 55.1781 58.1012C55.6195 58.0376 56.0682 58.1519 56.4253 58.419C56.4253 58.419 56.8945 58.7334 57.833 59.3623C58.7715 59.9913 59.6804 60.6101 60.5598 61.2188C61.4391 61.8275 62.1963 62.4474 62.8313 63.0786C63.4664 63.7097 64.0947 64.354 64.7161 65.0115C65.3376 65.6689 66.0185 66.5375 66.7588 67.6173C67.4992 68.6971 68.0413 69.6281 68.3853 70.4105C68.7292 71.1928 69.0424 71.938 69.3248 72.6459C69.6072 73.3538 69.9859 74.1642 70.4609 75.077C70.936 75.9899 71.3628 76.728 71.7414 77.2913C72.12 77.8547 72.5479 78.4014 73.025 78.9316C73.5022 79.4617 74.028 80.0175 74.6024 80.599C75.1767 81.1805 75.6721 81.6868 76.0886 82.1179C76.5051 82.5491 76.7133 82.7647 76.7133 82.7648C77.1222 83.2119 77.3375 83.8026 77.3123 84.4079C77.287 85.0133 77.0232 85.584 76.5785 85.9955C76.1338 86.4069 75.5444 86.6257 74.9389 86.604C74.3334 86.5822 73.7612 86.3218 73.3471 85.8795Z" fill="#E0CBA5"/>
<path d="M43.3503 74.7484C43.3503 74.7484 43.1761 74.6431 42.8275 74.4325C42.4789 74.2219 41.9835 74.0034 41.3412 73.777C40.6989 73.5506 39.9623 73.2517 39.1313 72.8805C38.3004 72.5093 37.3515 72.0633 36.2848 71.5425C35.2181 71.0217 34.2745 70.5336 33.454 70.0784C32.6335 69.6231 31.5606 69.0704 30.2351 68.4204C28.9096 67.7704 27.5232 67.1027 26.076 66.4174C24.6287 65.7322 23.3533 65.1184 22.2499 64.5761C21.1465 64.0338 19.9376 63.4493 18.623 62.8224C17.3085 62.1955 16.6512 61.882 16.6513 61.882C16.3088 61.7269 16.0419 61.4421 15.9094 61.0903C15.7768 60.7384 15.7895 60.3483 15.9446 60.0058C16.0997 59.6633 16.3845 59.3964 16.7363 59.2638C17.0882 59.1313 17.4783 59.144 17.8208 59.2991C17.8209 59.2991 18.49 59.5862 19.8283 60.1604C21.1665 60.7346 22.3958 61.2539 23.5162 61.7184C24.6365 62.1828 25.9412 62.7099 27.4303 63.2998C28.9193 63.8897 30.3732 64.4559 31.792 64.9983C33.2108 65.5408 34.3601 65.9871 35.2398 66.3371C36.1195 66.6871 37.1002 67.1071 38.1818 67.5971C39.2635 68.087 40.1363 68.4964 40.8004 68.8253C41.4646 69.1542 42.2623 69.5174 43.1937 69.9151C44.125 70.3128 44.7608 70.6256 45.101 70.8535C45.4412 71.0814 45.6114 71.1953 45.6115 71.1951C46.0827 71.495 46.4155 71.9697 46.5366 72.5149C46.6578 73.0602 46.5574 73.6312 46.2576 74.1024C46.1091 74.3357 45.9161 74.5374 45.6897 74.6962C45.4632 74.8549 45.2077 74.9675 44.9377 75.0275C44.3925 75.1486 43.8215 75.0483 43.3503 74.7484Z" fill="#E0CBA5"/>
<path d="M60.3748 94.2852C60.3748 94.2852 60.0452 94.2799 59.3861 94.2693C58.7269 94.2587 58.0042 94.2403 57.2178 94.214C56.4315 94.1877 56.0383 94.1745 56.0383 94.1745C55.506 94.1745 54.9955 93.9631 54.6191 93.5867C54.2427 93.2103 54.0312 92.6998 54.0312 92.1675C54.0312 91.6352 54.2427 91.1247 54.6191 90.7483C54.9955 90.3719 55.506 90.1604 56.0383 90.1604C56.0383 90.1604 56.4315 90.1473 57.2178 90.121C58.0042 90.0947 58.7269 90.0762 59.3861 90.0657C60.0452 90.0551 60.3748 90.0498 60.3748 90.0498C60.9365 90.0498 61.4751 90.2729 61.8723 90.6701C62.2694 91.0672 62.4925 91.6058 62.4925 92.1675C62.4925 92.7291 62.2694 93.2678 61.8723 93.6649C61.4751 94.0621 60.9365 94.2852 60.3748 94.2852Z" fill="#E0CBA5"/>
<path d="M29.3085 194.477C29.3085 194.477 29.5745 194.64 30.1067 194.966C30.6388 195.293 31.1904 195.736 31.7613 196.295C32.3323 196.855 32.865 197.414 33.3594 197.973C33.8537 198.532 34.3291 199.054 34.7854 199.54C35.2417 200.025 35.6777 200.522 36.0933 201.031C36.509 201.539 37.0272 202.195 37.648 202.998C38.2688 203.8 38.9724 204.686 39.759 205.654C40.5455 206.621 40.9388 207.105 40.9389 207.105C41.2207 207.425 41.3641 207.843 41.3375 208.269C41.3109 208.694 41.1164 209.091 40.797 209.373C40.4775 209.655 40.0591 209.798 39.6339 209.771C39.2087 209.745 38.8115 209.55 38.5296 209.231C38.5297 209.231 38.0985 208.78 37.2362 207.879C36.3738 206.978 35.3946 205.929 34.2985 204.733C33.2024 203.538 32.4141 202.689 31.9338 202.189C31.4534 201.688 30.8112 201.002 30.0071 200.131C29.2029 199.26 28.5392 198.664 28.0159 198.342C27.4925 198.02 27.2309 197.859 27.2311 197.859C26.7859 197.582 26.4684 197.14 26.348 196.63C26.2276 196.119 26.314 195.582 26.5885 195.135C26.8629 194.689 27.303 194.368 27.8127 194.245C28.3223 194.122 28.8601 194.205 29.3085 194.477Z" fill="#E0CBA5"/>
<path d="M88.4465 156.814C88.4465 156.814 88.5084 157.081 88.6322 157.616C88.756 158.151 88.9075 158.82 89.0866 159.624C89.2657 160.427 89.4855 161.146 89.7461 161.778C90.0067 162.411 90.3261 163.109 90.7043 163.874C91.0824 164.638 91.4352 165.397 91.7627 166.152C92.0901 166.907 92.3737 167.599 92.6136 168.23C92.8534 168.86 93.1299 169.544 93.4429 170.282C93.7559 171.02 94.113 171.914 94.5141 172.965C94.9153 174.015 95.2585 174.874 95.5438 175.54C95.829 176.207 96.1396 176.897 96.4755 177.611C96.8115 178.324 97.189 179.086 97.6081 179.897C98.0272 180.708 98.4845 181.542 98.9799 182.399C99.4754 183.255 100.023 184.184 100.622 185.185C101.221 186.186 101.675 186.993 101.983 187.607C102.292 188.22 102.748 188.945 103.352 189.781C103.956 190.617 104.601 191.568 105.288 192.635C105.974 193.701 106.541 194.564 106.989 195.222C107.437 195.881 107.89 196.555 108.349 197.246C108.808 197.937 109.304 198.665 109.838 199.431C110.371 200.198 110.986 201.132 111.681 202.234C112.376 203.337 113.19 204.656 114.124 206.191C115.057 207.727 116.025 209.365 117.027 211.106C118.03 212.846 118.981 214.487 119.881 216.028C120.781 217.569 121.773 219.257 122.856 221.092C123.939 222.926 124.481 223.844 124.481 223.844C124.66 224.142 124.713 224.499 124.629 224.836C124.545 225.173 124.33 225.463 124.033 225.642C123.735 225.821 123.378 225.874 123.041 225.79C122.704 225.706 122.414 225.491 122.235 225.193C122.235 225.193 121.68 224.284 120.569 222.465C119.458 220.647 118.433 218.977 117.494 217.456C116.555 215.934 115.567 214.332 114.53 212.648C113.493 210.963 112.485 209.391 111.505 207.93C110.526 206.469 109.665 205.244 108.922 204.257C108.178 203.269 107.486 202.4 106.844 201.651C106.202 200.901 105.639 200.209 105.157 199.574C104.674 198.94 104.157 198.284 103.605 197.606C103.054 196.928 102.587 196.315 102.204 195.765C101.821 195.216 101.318 194.501 100.694 193.621C100.07 192.742 99.5509 192.014 99.1366 191.437C98.7222 190.861 98.2082 190.074 97.5945 189.078C96.9808 188.081 96.3778 187.11 95.7856 186.164C95.1934 185.218 94.6292 184.308 94.093 183.435C93.5569 182.562 93.0896 181.718 92.6913 180.903C92.2931 180.088 91.9127 179.295 91.5504 178.524C91.188 177.753 90.8666 177 90.5863 176.265C90.306 175.53 89.9759 174.732 89.5959 173.87C89.216 173.008 88.8692 172.163 88.5557 171.334C88.2421 170.506 87.9284 169.694 87.6145 168.896C87.3006 168.099 87.0036 167.404 86.7233 166.813C86.4431 166.221 86.1552 165.552 85.8596 164.804C85.5641 164.057 85.311 163.342 85.1005 162.657C84.8899 161.973 84.7119 161.282 84.5663 160.583C84.4207 159.885 84.2765 159.271 84.1338 158.74C83.991 158.21 83.9198 157.945 83.9203 157.945C83.7702 157.345 83.8647 156.71 84.183 156.179C84.5013 155.649 85.0174 155.267 85.6176 155.117C86.2178 154.966 86.853 155.061 87.3836 155.379C87.9141 155.698 88.2964 156.214 88.4465 156.814Z" fill="#E0CBA5"/>
</svg>
