<svg width="150" viewBox="0 0 368 401" fill="none" xmlns="http://www.w3.org/2000/svg">
<g clip-path="url(#clip0_536_2)">
<path d="M106.061 128.104V122.248H100.877V128.104H97.4213V122.248H92.1413V118.792H97.4213V113.608H92.1413V110.152H97.4213V104.296H100.877V110.152H106.061V104.296H109.517V110.152H114.797V113.608H109.517V118.792H114.797V122.248H109.517V128.104H106.061ZM106.061 113.608H100.877V118.792H106.061V113.608ZM164.843 128.104V122.248H159.659V128.104H156.203V122.248H150.923V118.792H156.203V113.608H150.923V110.152H156.203V104.296H159.659V110.152H164.843V104.296H168.299V110.152H173.579V113.608H168.299V118.792H173.579V122.248H168.299V128.104H164.843ZM164.843 113.608H159.659V118.792H164.843V113.608ZM253.014 128.104V122.248H247.83V128.104H244.374V122.248H239.094V118.792H244.374V113.608H239.094V110.152H244.374V104.296H247.83V110.152H253.014V104.296H256.47V110.152H261.75V113.608H256.47V118.792H261.75V122.248H256.47V128.104H253.014ZM253.014 113.608H247.83V118.792H253.014V113.608ZM135.452 162.104V156.248H130.268V162.104H126.812V156.248H121.532V152.792H126.812V147.608H121.532V144.152H126.812V138.296H130.268V144.152H135.452V138.296H138.908V144.152H144.188V147.608H138.908V152.792H144.188V156.248H138.908V162.104H135.452ZM135.452 147.608H130.268V152.792H135.452V147.608ZM253.014 162.104V156.248H247.83V162.104H244.374V156.248H239.094V152.792H244.374V147.608H239.094V144.152H244.374V138.296H247.83V144.152H253.014V138.296H256.47V144.152H261.75V147.608H256.47V152.792H261.75V156.248H256.47V162.104H253.014ZM253.014 147.608H247.83V152.792H253.014V147.608ZM164.843 196.104V190.248H159.659V196.104H156.203V190.248H150.923V186.792H156.203V181.608H150.923V178.152H156.203V172.296H159.659V178.152H164.843V172.296H168.299V178.152H173.579V181.608H168.299V186.792H173.579V190.248H168.299V196.104H164.843ZM164.843 181.608H159.659V186.792H164.843V181.608ZM223.624 196.104V190.248H218.44V196.104H214.984V190.248H209.704V186.792H214.984V181.608H209.704V178.152H214.984V172.296H218.44V178.152H223.624V172.296H227.08V178.152H232.36V181.608H227.08V186.792H232.36V190.248H227.08V196.104H223.624ZM223.624 181.608H218.44V186.792H223.624V181.608ZM194.233 230.104V224.248H189.049V230.104H185.593V224.248H180.313V220.792H185.593V215.608H180.313V212.152H185.593V206.296H189.049V212.152H194.233V206.296H197.689V212.152H202.969V215.608H197.689V220.792H202.969V224.248H197.689V230.104H194.233ZM194.233 215.608H189.049V220.792H194.233V215.608ZM194.233 264.104V258.248H189.049V264.104H185.593V258.248H180.313V254.792H185.593V249.608H180.313V246.152H185.593V240.296H189.049V246.152H194.233V240.296H197.689V246.152H202.969V249.608H197.689V254.792H202.969V258.248H197.689V264.104H194.233ZM194.233 249.608H189.049V254.792H194.233V249.608ZM194.233 298.104V292.248H189.049V298.104H185.593V292.248H180.313V288.792H185.593V283.608H180.313V280.152H185.593V274.296H189.049V280.152H194.233V274.296H197.689V280.152H202.969V283.608H197.689V288.792H202.969V292.248H197.689V298.104H194.233ZM194.233 283.608H189.049V288.792H194.233V283.608ZM223.624 298.104V292.248H218.44V298.104H214.984V292.248H209.704V288.792H214.984V283.608H209.704V280.152H214.984V274.296H218.44V280.152H223.624V274.296H227.08V280.152H232.36V283.608H227.08V288.792H232.36V292.248H227.08V298.104H223.624ZM223.624 283.608H218.44V288.792H223.624V283.608ZM164.843 332.104V326.248H159.659V332.104H156.203V326.248H150.923V322.792H156.203V317.608H150.923V314.152H156.203V308.296H159.659V314.152H164.843V308.296H168.299V314.152H173.579V317.608H168.299V322.792H173.579V326.248H168.299V332.104H164.843ZM164.843 317.608H159.659V322.792H164.843V317.608ZM194.233 332.104V326.248H189.049V332.104H185.593V326.248H180.313V322.792H185.593V317.608H180.313V314.152H185.593V308.296H189.049V314.152H194.233V308.296H197.689V314.152H202.969V317.608H197.689V322.792H202.969V326.248H197.689V332.104H194.233ZM194.233 317.608H189.049V322.792H194.233V317.608ZM164.843 366.104V360.248H159.659V366.104H156.203V360.248H150.923V356.792H156.203V351.608H150.923V348.152H156.203V342.296H159.659V348.152H164.843V342.296H168.299V348.152H173.579V351.608H168.299V356.792H173.579V360.248H168.299V366.104H164.843ZM164.843 351.608H159.659V356.792H164.843V351.608ZM194.233 366.104V360.248H189.049V366.104H185.593V360.248H180.313V356.792H185.593V351.608H180.313V348.152H185.593V342.296H189.049V348.152H194.233V342.296H197.689V348.152H202.969V351.608H197.689V356.792H202.969V360.248H197.689V366.104H194.233ZM194.233 351.608H189.049V356.792H194.233V351.608Z" fill="#34393D"/>
<path d="M113.117 41L108.893 45.224L106.493 46.568L106.733 47.144L108.893 46.472H115.373V49.928H108.893L106.733 49.256L106.493 49.832L108.893 51.176L113.117 55.4L110.669 57.848L106.445 53.624L105.101 51.224L104.525 51.464L105.197 53.624V60.104H101.741V53.624L102.413 51.464L101.837 51.224L100.493 53.624L96.2693 57.848L93.8213 55.4L98.0453 51.176L100.445 49.832L100.205 49.256L98.0453 49.928H91.5653V46.472H98.0453L100.205 47.144L100.445 46.568L98.0453 45.224L93.8213 41L96.2693 38.552L100.493 42.776L101.837 45.176L102.413 44.936L101.741 42.776V36.296H105.197V42.776L104.525 44.936L105.101 45.176L106.445 42.776L110.669 38.552L113.117 41ZM201.289 41L197.065 45.224L194.665 46.568L194.905 47.144L197.065 46.472H203.545V49.928H197.065L194.905 49.256L194.665 49.832L197.065 51.176L201.289 55.4L198.841 57.848L194.617 53.624L193.273 51.224L192.697 51.464L193.369 53.624V60.104H189.913V53.624L190.585 51.464L190.009 51.224L188.665 53.624L184.441 57.848L181.993 55.4L186.217 51.176L188.617 49.832L188.377 49.256L186.217 49.928H179.737V46.472H186.217L188.377 47.144L188.617 46.568L186.217 45.224L181.993 41L184.441 38.552L188.665 42.776L190.009 45.176L190.585 44.936L189.913 42.776V36.296H193.369V42.776L192.697 44.936L193.273 45.176L194.617 42.776L198.841 38.552L201.289 41ZM171.899 75L167.675 79.224L165.275 80.568L165.515 81.144L167.675 80.472H174.155V83.928H167.675L165.515 83.256L165.275 83.832L167.675 85.176L171.899 89.4L169.451 91.848L165.227 87.624L163.883 85.224L163.307 85.464L163.979 87.624V94.104H160.523V87.624L161.195 85.464L160.619 85.224L159.275 87.624L155.051 91.848L152.603 89.4L156.827 85.176L159.227 83.832L158.987 83.256L156.827 83.928H150.347V80.472H156.827L158.987 81.144L159.227 80.568L156.827 79.224L152.603 75L155.051 72.552L159.275 76.776L160.619 79.176L161.195 78.936L160.523 76.776V70.296H163.979V76.776L163.307 78.936L163.883 79.176L165.227 76.776L169.451 72.552L171.899 75ZM289.461 75L285.237 79.224L282.837 80.568L283.077 81.144L285.237 80.472H291.717V83.928H285.237L283.077 83.256L282.837 83.832L285.237 85.176L289.461 89.4L287.013 91.848L282.789 87.624L281.445 85.224L280.869 85.464L281.541 87.624V94.104H278.085V87.624L278.757 85.464L278.181 85.224L276.837 87.624L272.613 91.848L270.165 89.4L274.389 85.176L276.789 83.832L276.549 83.256L274.389 83.928H267.909V80.472H274.389L276.549 81.144L276.789 80.568L274.389 79.224L270.165 75L272.613 72.552L276.837 76.776L278.181 79.176L278.757 78.936L278.085 76.776V70.296H281.541V76.776L280.869 78.936L281.445 79.176L282.789 76.776L287.013 72.552L289.461 75ZM318.852 109L314.628 113.224L312.228 114.568L312.468 115.144L314.628 114.472H321.108V117.928H314.628L312.468 117.256L312.228 117.832L314.628 119.176L318.852 123.4L316.404 125.848L312.18 121.624L310.836 119.224L310.26 119.464L310.932 121.624V128.104H307.476V121.624L308.148 119.464L307.572 119.224L306.228 121.624L302.004 125.848L299.556 123.4L303.78 119.176L306.18 117.832L305.94 117.256L303.78 117.928H297.3V114.472H303.78L305.94 115.144L306.18 114.568L303.78 113.224L299.556 109L302.004 106.552L306.228 110.776L307.572 113.176L308.148 112.936L307.476 110.776V104.296H310.932V110.776L310.26 112.936L310.836 113.176L312.18 110.776L316.404 106.552L318.852 109ZM289.461 211L285.237 215.224L282.837 216.568L283.077 217.144L285.237 216.472H291.717V219.928H285.237L283.077 219.256L282.837 219.832L285.237 221.176L289.461 225.4L287.013 227.848L282.789 223.624L281.445 221.224L280.869 221.464L281.541 223.624V230.104H278.085V223.624L278.757 221.464L278.181 221.224L276.837 223.624L272.613 227.848L270.165 225.4L274.389 221.176L276.789 219.832L276.549 219.256L274.389 219.928H267.909V216.472H274.389L276.549 217.144L276.789 216.568L274.389 215.224L270.165 211L272.613 208.552L276.837 212.776L278.181 215.176L278.757 214.936L278.085 212.776V206.296H281.541V212.776L280.869 214.936L281.445 215.176L282.789 212.776L287.013 208.552L289.461 211Z" fill="#F7C367"/>
<path d="M142.508 41L138.284 45.224L135.884 46.568L136.124 47.144L138.284 46.472H144.764V49.928H138.284L136.124 49.256L135.884 49.832L138.284 51.176L142.508 55.4L140.06 57.848L135.836 53.624L134.492 51.224L133.916 51.464L134.588 53.624V60.104H131.132V53.624L131.804 51.464L131.228 51.224L129.884 53.624L125.66 57.848L123.212 55.4L127.436 51.176L129.836 49.832L129.596 49.256L127.436 49.928H120.956V46.472H127.436L129.596 47.144L129.836 46.568L127.436 45.224L123.212 41L125.66 38.552L129.884 42.776L131.228 45.176L131.804 44.936L131.132 42.776V36.296H134.588V42.776L133.916 44.936L134.492 45.176L135.836 42.776L140.06 38.552L142.508 41ZM171.899 41L167.675 45.224L165.275 46.568L165.515 47.144L167.675 46.472H174.155V49.928H167.675L165.515 49.256L165.275 49.832L167.675 51.176L171.899 55.4L169.451 57.848L165.227 53.624L163.883 51.224L163.307 51.464L163.979 53.624V60.104H160.523V53.624L161.195 51.464L160.619 51.224L159.275 53.624L155.051 57.848L152.603 55.4L156.827 51.176L159.227 49.832L158.987 49.256L156.827 49.928H150.347V46.472H156.827L158.987 47.144L159.227 46.568L156.827 45.224L152.603 41L155.051 38.552L159.275 42.776L160.619 45.176L161.195 44.936L160.523 42.776V36.296H163.979V42.776L163.307 44.936L163.883 45.176L165.227 42.776L169.451 38.552L171.899 41ZM83.7266 75L79.5026 79.224L77.1026 80.568L77.3426 81.144L79.5026 80.472H85.9826V83.928H79.5026L77.3426 83.256L77.1026 83.832L79.5026 85.176L83.7266 89.4L81.2786 91.848L77.0546 87.624L75.7106 85.224L75.1346 85.464L75.8066 87.624V94.104H72.3506V87.624L73.0226 85.464L72.4466 85.224L71.1026 87.624L66.8786 91.848L64.4306 89.4L68.6546 85.176L71.0546 83.832L70.8146 83.256L68.6546 83.928H62.1746V80.472H68.6546L70.8146 81.144L71.0546 80.568L68.6546 79.224L64.4306 75L66.8786 72.552L71.1026 76.776L72.4466 79.176L73.0226 78.936L72.3506 76.776V70.296H75.8066V76.776L75.1346 78.936L75.7106 79.176L77.0546 76.776L81.2786 72.552L83.7266 75ZM113.117 75L108.893 79.224L106.493 80.568L106.733 81.144L108.893 80.472H115.373V83.928H108.893L106.733 83.256L106.493 83.832L108.893 85.176L113.117 89.4L110.669 91.848L106.445 87.624L105.101 85.224L104.525 85.464L105.197 87.624V94.104H101.741V87.624L102.413 85.464L101.837 85.224L100.493 87.624L96.2693 91.848L93.8213 89.4L98.0453 85.176L100.445 83.832L100.205 83.256L98.0453 83.928H91.5653V80.472H98.0453L100.205 81.144L100.445 80.568L98.0453 79.224L93.8213 75L96.2693 72.552L100.493 76.776L101.837 79.176L102.413 78.936L101.741 76.776V70.296H105.197V76.776L104.525 78.936L105.101 79.176L106.445 76.776L110.669 72.552L113.117 75ZM142.508 75L138.284 79.224L135.884 80.568L136.124 81.144L138.284 80.472H144.764V83.928H138.284L136.124 83.256L135.884 83.832L138.284 85.176L142.508 89.4L140.06 91.848L135.836 87.624L134.492 85.224L133.916 85.464L134.588 87.624V94.104H131.132V87.624L131.804 85.464L131.228 85.224L129.884 87.624L125.66 91.848L123.212 89.4L127.436 85.176L129.836 83.832L129.596 83.256L127.436 83.928H120.956V80.472H127.436L129.596 81.144L129.836 80.568L127.436 79.224L123.212 75L125.66 72.552L129.884 76.776L131.228 79.176L131.804 78.936L131.132 76.776V70.296H134.588V76.776L133.916 78.936L134.492 79.176L135.836 76.776L140.06 72.552L142.508 75ZM201.289 75L197.065 79.224L194.665 80.568L194.905 81.144L197.065 80.472H203.545V83.928H197.065L194.905 83.256L194.665 83.832L197.065 85.176L201.289 89.4L198.841 91.848L194.617 87.624L193.273 85.224L192.697 85.464L193.369 87.624V94.104H189.913V87.624L190.585 85.464L190.009 85.224L188.665 87.624L184.441 91.848L181.993 89.4L186.217 85.176L188.617 83.832L188.377 83.256L186.217 83.928H179.737V80.472H186.217L188.377 81.144L188.617 80.568L186.217 79.224L181.993 75L184.441 72.552L188.665 76.776L190.009 79.176L190.585 78.936L189.913 76.776V70.296H193.369V76.776L192.697 78.936L193.273 79.176L194.617 76.776L198.841 72.552L201.289 75ZM230.68 75L226.456 79.224L224.056 80.568L224.296 81.144L226.456 80.472H232.936V83.928H226.456L224.296 83.256L224.056 83.832L226.456 85.176L230.68 89.4L228.232 91.848L224.008 87.624L222.664 85.224L222.088 85.464L222.76 87.624V94.104H219.304V87.624L219.976 85.464L219.4 85.224L218.056 87.624L213.832 91.848L211.384 89.4L215.608 85.176L218.008 83.832L217.768 83.256L215.608 83.928H209.128V80.472H215.608L217.768 81.144L218.008 80.568L215.608 79.224L211.384 75L213.832 72.552L218.056 76.776L219.4 79.176L219.976 78.936L219.304 76.776V70.296H222.76V76.776L222.088 78.936L222.664 79.176L224.008 76.776L228.232 72.552L230.68 75ZM260.07 75L255.846 79.224L253.446 80.568L253.686 81.144L255.846 80.472H262.326V83.928H255.846L253.686 83.256L253.446 83.832L255.846 85.176L260.07 89.4L257.622 91.848L253.398 87.624L252.054 85.224L251.478 85.464L252.15 87.624V94.104H248.694V87.624L249.366 85.464L248.79 85.224L247.446 87.624L243.222 91.848L240.774 89.4L244.998 85.176L247.398 83.832L247.158 83.256L244.998 83.928H238.518V80.472H244.998L247.158 81.144L247.398 80.568L244.998 79.224L240.774 75L243.222 72.552L247.446 76.776L248.79 79.176L249.366 78.936L248.694 76.776V70.296H252.15V76.776L251.478 78.936L252.054 79.176L253.398 76.776L257.622 72.552L260.07 75ZM54.336 109L50.112 113.224L47.712 114.568L47.952 115.144L50.112 114.472H56.592V117.928H50.112L47.952 117.256L47.712 117.832L50.112 119.176L54.336 123.4L51.888 125.848L47.664 121.624L46.32 119.224L45.744 119.464L46.416 121.624V128.104H42.96V121.624L43.632 119.464L43.056 119.224L41.712 121.624L37.488 125.848L35.04 123.4L39.264 119.176L41.664 117.832L41.424 117.256L39.264 117.928H32.784V114.472H39.264L41.424 115.144L41.664 114.568L39.264 113.224L35.04 109L37.488 106.552L41.712 110.776L43.056 113.176L43.632 112.936L42.96 110.776V104.296H46.416V110.776L45.744 112.936L46.32 113.176L47.664 110.776L51.888 106.552L54.336 109ZM201.289 109L197.065 113.224L194.665 114.568L194.905 115.144L197.065 114.472H203.545V117.928H197.065L194.905 117.256L194.665 117.832L197.065 119.176L201.289 123.4L198.841 125.848L194.617 121.624L193.273 119.224L192.697 119.464L193.369 121.624V128.104H189.913V121.624L190.585 119.464L190.009 119.224L188.665 121.624L184.441 125.848L181.993 123.4L186.217 119.176L188.617 117.832L188.377 117.256L186.217 117.928H179.737V114.472H186.217L188.377 115.144L188.617 114.568L186.217 113.224L181.993 109L184.441 106.552L188.665 110.776L190.009 113.176L190.585 112.936L189.913 110.776V104.296H193.369V110.776L192.697 112.936L193.273 113.176L194.617 110.776L198.841 106.552L201.289 109ZM230.68 109L226.456 113.224L224.056 114.568L224.296 115.144L226.456 114.472H232.936V117.928H226.456L224.296 117.256L224.056 117.832L226.456 119.176L230.68 123.4L228.232 125.848L224.008 121.624L222.664 119.224L222.088 119.464L222.76 121.624V128.104H219.304V121.624L219.976 119.464L219.4 119.224L218.056 121.624L213.832 125.848L211.384 123.4L215.608 119.176L218.008 117.832L217.768 117.256L215.608 117.928H209.128V114.472H215.608L217.768 115.144L218.008 114.568L215.608 113.224L211.384 109L213.832 106.552L218.056 110.776L219.4 113.176L219.976 112.936L219.304 110.776V104.296H222.76V110.776L222.088 112.936L222.664 113.176L224.008 110.776L228.232 106.552L230.68 109ZM289.461 109L285.237 113.224L282.837 114.568L283.077 115.144L285.237 114.472H291.717V117.928H285.237L283.077 117.256L282.837 117.832L285.237 119.176L289.461 123.4L287.013 125.848L282.789 121.624L281.445 119.224L280.869 119.464L281.541 121.624V128.104H278.085V121.624L278.757 119.464L278.181 119.224L276.837 121.624L272.613 125.848L270.165 123.4L274.389 119.176L276.789 117.832L276.549 117.256L274.389 117.928H267.909V114.472H274.389L276.549 115.144L276.789 114.568L274.389 113.224L270.165 109L272.613 106.552L276.837 110.776L278.181 113.176L278.757 112.936L278.085 110.776V104.296H281.541V110.776L280.869 112.936L281.445 113.176L282.789 110.776L287.013 106.552L289.461 109ZM260.07 245L255.846 249.224L253.446 250.568L253.686 251.144L255.846 250.472H262.326V253.928H255.846L253.686 253.256L253.446 253.832L255.846 255.176L260.07 259.4L257.622 261.848L253.398 257.624L252.054 255.224L251.478 255.464L252.15 257.624V264.104H248.694V257.624L249.366 255.464L248.79 255.224L247.446 257.624L243.222 261.848L240.774 259.4L244.998 255.176L247.398 253.832L247.158 253.256L244.998 253.928H238.518V250.472H244.998L247.158 251.144L247.398 250.568L244.998 249.224L240.774 245L243.222 242.552L247.446 246.776L248.79 249.176L249.366 248.936L248.694 246.776V240.296H252.15V246.776L251.478 248.936L252.054 249.176L253.398 246.776L257.622 242.552L260.07 245Z" fill="#EDCA8A"/>
<path d="M83.7266 109L79.5026 113.224L77.1026 114.568L77.3426 115.144L79.5026 114.472H85.9826V117.928H79.5026L77.3426 117.256L77.1026 117.832L79.5026 119.176L83.7266 123.4L81.2786 125.848L77.0546 121.624L75.7106 119.224L75.1346 119.464L75.8066 121.624V128.104H72.3506V121.624L73.0226 119.464L72.4466 119.224L71.1026 121.624L66.8786 125.848L64.4306 123.4L68.6546 119.176L71.0546 117.832L70.8146 117.256L68.6546 117.928H62.1746V114.472H68.6546L70.8146 115.144L71.0546 114.568L68.6546 113.224L64.4306 109L66.8786 106.552L71.1026 110.776L72.4466 113.176L73.0226 112.936L72.3506 110.776V104.296H75.8066V110.776L75.1346 112.936L75.7106 113.176L77.0546 110.776L81.2786 106.552L83.7266 109Z" fill="#A69881"/>
<path d="M142.508 109L138.284 113.224L135.884 114.568L136.124 115.144L138.284 114.472H144.764V117.928H138.284L136.124 117.256L135.884 117.832L138.284 119.176L142.508 123.4L140.06 125.848L135.836 121.624L134.492 119.224L133.916 119.464L134.588 121.624V128.104H131.132V121.624L131.804 119.464L131.228 119.224L129.884 121.624L125.66 125.848L123.212 123.4L127.436 119.176L129.836 117.832L129.596 117.256L127.436 117.928H120.956V114.472H127.436L129.596 115.144L129.836 114.568L127.436 113.224L123.212 109L125.66 106.552L129.884 110.776L131.228 113.176L131.804 112.936L131.132 110.776V104.296H134.588V110.776L133.916 112.936L134.492 113.176L135.836 110.776L140.06 106.552L142.508 109Z" fill="#A69881"/>
</g>
<defs>
<clipPath id="clip0_536_2">
<rect width="368" height="401" fill="white"/>
</clipPath>
</defs>
</svg>
